<?xml version="1.0" encoding="UTF-8"?>
<svg width="1700px" height="1700px" viewBox="0 0 1700 1700" version="1.1" xmlns="http://www.w3.org/2000/svg" xmlns:xlink="http://www.w3.org/1999/xlink">
    <!-- Generator: Sketch 58 (84663) - https://sketch.com -->
    <title>8_HATS/COUNT:116/REMOVE:EARS/AFRO</title>
    <desc>Created with Sketch.</desc>
    <defs>
        <path d="M168.679774,907.461514 C142.376085,913.019448 122.815934,910.103869 109.99932,898.714779 C97.1827056,887.325688 92.79308,867.462261 96.830443,839.124498 C70.6142177,837.488339 53.2739617,827.140681 44.8096752,808.081525 C36.3453887,789.022369 39.2456718,771.542656 53.5105243,755.642387 C29.7427328,750.59251 15.6482328,737.097257 11.2270245,715.156631 C6.80581617,693.216005 13.0350492,676.476824 29.9147236,664.93909 C10.4921991,652.955715 0.780936778,634.569698 0.780936778,609.78104 C0.780936778,584.992382 10.4921991,570.678082 29.9147236,566.83814 C13.0127109,550.557349 6.78347784,531.759446 11.2270245,510.444433 C15.6705711,489.12942 27.7802382,475.984175 47.5560255,471.008697 C34.0224072,448.29612 31.2280639,426.081428 39.1729956,404.364621 C47.1179273,382.647813 61.1080781,372.314698 81.1434478,373.365276 C69.3995919,347.503494 69.3995919,325.642972 81.1434478,307.78371 C92.8873038,289.924448 108.991822,282.595318 129.457001,285.79632 C117.880895,264.370203 120.479028,244.465874 137.251399,226.083332 C154.023769,207.700791 171.417071,201.361249 189.431304,207.064706 C185.36539,190.973456 191.800234,174.65401 208.735836,158.106368 C225.671438,141.558726 241.320807,135.86261 255.683944,141.01802 C253.791349,120.197959 261.631845,104.540764 279.205432,94.0464354 C296.77902,83.5521065 312.015131,81.7410838 324.913766,88.6133674 C324.470041,68.762688 334.103962,53.4014018 353.815528,42.5295088 C373.527094,31.6576157 391.35699,31.6576157 407.305214,42.5295088 L426.874249,0.540913746 L908.952056,8.6722251 L908.952056,32.6423873 C936.158816,22.5236729 959.393738,22.5236729 978.65682,32.6423873 C997.919903,42.7611017 1009.43031,61.4180951 1013.18803,88.6133674 C1034.38461,75.6528999 1055.45053,75.6528999 1076.3858,88.6133674 C1097.32107,101.573835 1105.05979,119.042052 1099.60197,141.01802 C1125.57801,140.374946 1145.08889,146.071062 1158.1346,158.106368 C1171.18031,170.141673 1177.06075,186.461119 1175.77592,207.064706 C1200.04452,208.075935 1216.92285,215.721735 1226.41092,230.002106 C1235.89899,244.282478 1237.28912,262.880549 1230.58131,285.79632 C1255.86579,288.823159 1272.54584,297.780577 1280.62148,312.668572 C1288.69712,327.556567 1290.05663,347.788802 1284.7,373.365276 C1303.22364,379.315967 1315.77332,391.74278 1322.34903,410.645716 C1328.92474,429.548652 1327.69737,449.669645 1318.66693,471.008697 C1336.03221,479.880517 1346.69806,493.025762 1350.66448,510.444433 C1354.6309,527.863104 1351.23885,546.661007 1340.48834,566.83814 C1355.46172,579.830874 1362.94841,595.355153 1362.94841,613.410979 C1362.94841,631.466805 1355.46172,648.642842 1340.48834,664.93909 C1354.8122,683.875201 1361.11118,700.614382 1359.38526,715.156631 C1357.65934,729.69888 1347.77206,743.194132 1329.72341,755.642387 C1339.363,779.491491 1341.42646,798.068214 1335.91379,811.372556 C1330.40112,824.676898 1316.80736,833.927545 1295.1325,839.124498 C1303.34993,869.115906 1303.34993,891.894911 1295.1325,907.461514 C1286.91507,923.028118 1269.75556,932.755075 1243.65396,936.642387 C1244.98226,963.574836 1240.62471,982.250998 1230.58131,992.670875 C1220.53792,1003.09075 1202.26945,1007.88875 1175.77592,1007.06486 C1180.84628,1027.59213 1178.56575,1043.5011 1168.93431,1054.79179 C1159.30286,1066.08248 1145.00579,1069.47598 1126.04308,1064.97231 C1128.62861,1085.45803 1122.32119,1099.11617 1107.12082,1105.94673 C1094.36763,1111.67761 1053.61982,1136.47573 1053.61982,1123.0578 C1053.61982,1113.89065 1055.72245,1086.20167 1050.09974,1082.4623 C1035.84692,1072.9835 1010.82349,1089.84453 1002.35331,1047.1231 C997.373513,1022.00627 1004.71722,1003.85553 1024.38442,992.670875 C1013.62641,976.056576 1009.89428,958.425292 1013.18803,939.777021 C1016.48178,921.12875 1027.04536,908.489754 1044.87878,901.860032 C1031.21587,889.511738 1024.38442,874.626974 1024.38442,857.20574 C1024.38442,839.784505 1034.12955,823.409767 1053.61982,808.081525 C1026.66529,808.081525 1006.53992,796.245059 993.243691,772.572126 C982.125561,752.777127 982.125561,733.638628 993.243691,715.156631 C987.875979,726.590851 975.119069,731.700368 954.972959,730.485184 C934.82685,729.269999 915.402032,722.159273 896.698506,709.153004 C875.073107,727.944325 857.620897,737.339986 844.341878,737.339986 C818.407403,737.339986 795.876972,727.944325 776.750584,709.153004 C760.867908,726.560739 741.799358,735.9564 719.544933,737.339986 C697.290507,738.723572 673.903658,729.327911 649.384384,709.153004 C629.764068,727.944325 607.580371,737.339986 582.833293,737.339986 C558.086215,737.339986 537.320052,725.269174 520.534804,701.12755 C503.70335,721.265136 482.652906,731.051014 457.383471,730.485184 C432.114037,729.919353 410.183654,718.091277 391.592322,695.000956 C383.444061,718.156385 365.161831,730.592053 336.74563,732.30796 C294.121329,734.881822 271.734971,694.736709 269.536867,697.391056 C246.12767,725.659116 240.52845,750.735982 215.692378,791.98691 C203.727282,811.860072 188.056414,850.351607 168.679774,907.461514 Z" id="path-1"></path>
    </defs>
    <g id="8_HATS/COUNT:116/REMOVE:EARS/AFRO" stroke="none" stroke-width="1" fill="none" fill-rule="evenodd">
        <g id="Group" transform="translate(260.169557, -32.642387)">
            <mask id="mask-2" fill="white">
                <use xlink:href="#path-1"></use>
            </mask>
            <use id="Path-759" stroke="#000000" stroke-width="10" fill="#7C6C57" stroke-linejoin="round" xlink:href="#path-1"></use>
            <path d="M1497.83044,0.540913746 L1490.63896,238.683997 L1459.29088,1276.76316 L835.611395,1115.8541 L901.159111,835.642387 L953.254789,767.476914 L935.116909,770.893751 C684.82663,780.255638 499.064475,780.255638 377.830443,770.893751 C256.596411,761.531865 217.689055,744.182526 261.108375,718.845733 L222.769523,732.841427 L166.447942,718.845733 L148.980789,673.527609 C165.632053,694.516261 186.024873,705.010587 210.159249,705.010587 C234.293625,705.010587 253.797252,692.159667 268.670131,666.457827 C287.639013,692.159667 308.261404,705.010587 330.537303,705.010587 C352.813202,705.010587 373.075215,691.063477 391.323342,663.169255 C410.908959,693.958755 432.482964,707.905866 456.045357,705.010587 C479.60775,702.115309 502.242145,689.264389 523.948542,666.457827 C539.341436,692.159667 558.969687,705.010587 582.833293,705.010587 C606.696899,705.010587 628.815265,692.159667 649.188391,666.457827 C665.426556,692.159667 687.264592,705.010587 714.7025,705.010587 C742.140408,705.010587 763.948933,694.516261 780.128074,673.527609 C792.192505,697.497156 810.801591,709.481929 835.955333,709.481929 C861.109075,709.481929 881.477732,697.497156 897.061303,673.527609 C902.953509,694.516261 918.915144,705.010587 944.946208,705.010587 C970.977272,705.010587 995.159856,694.516261 1017.49396,673.527609 C1010.20627,699.38788 1008.54496,717.621762 1012.51003,728.229256 C1016.2644,738.273077 1025.10429,745.574385 1039.02972,750.133181 C1042.66166,750.104646 1046.4422,749.668927 1050.37139,748.826778 C1075.48731,743.44364 1089.30318,725.75076 1091.819,695.748137 C1116.75439,692.762554 1131.63412,678.874341 1136.45818,654.083496 C1141.28224,629.292651 1137.17823,609.180986 1124.14615,593.748501 C1141.31415,584.366777 1150.7813,567.874518 1152.54761,544.271726 C1154.31392,520.668933 1143.64101,503.479192 1120.52889,492.702504 C1131.99689,475.114026 1136.06016,456.760654 1132.71869,437.642387 C1129.37723,418.524121 1117.49049,406.771382 1097.05849,402.384172 C1106.28331,376.080804 1106.28331,352.083819 1097.05849,330.393218 C1087.83367,308.702618 1072.27131,296.004247 1050.37139,292.298106 C1064.1002,269.475485 1064.1002,248.38803 1050.37139,229.035742 C1036.64258,209.683454 1017.60001,203.54628 993.243691,210.624222 C1001.44422,187.368627 995.857946,165.729624 976.484883,145.707213 C957.111819,125.684802 935.985575,120.947778 913.106151,131.496143 C905.141457,101.566735 890.985965,81.1522575 870.639675,70.2527106 C850.293384,59.3531637 828.342681,59.3531637 804.787566,70.2527106 C798.122988,56.6152211 783.997618,47.4642329 762.411456,42.7997461 C730.032214,35.8030159 720.476446,67.2990865 719.544933,61.9556207 C718.677657,56.9806419 711.340882,44.8225541 698.38083,37.4160056 C691.271022,33.3528173 676.653038,28.4238746 654.526877,22.6291776 L1497.83044,0.540913746 Z" id="Path-765" fill-opacity="0.2" fill="#000000" mask="url(#mask-2)"></path>
            <path d="M170.723503,890.911888 C145.968905,895.078477 130.228466,892.321977 123.502186,882.642387 C116.775906,872.962798 116.775906,852.086739 123.502186,820.014212 C99.4279875,819.463973 83.1795165,811.280235 74.7567729,795.462998 C66.3340293,779.645761 68.0496275,763.074556 79.9035676,745.749382 C56.4089493,736.649778 42.1811934,724.772924 37.2202997,710.11882 C32.2594061,695.464716 37.2932658,678.677102 52.3218788,659.755979 C34.3675,646.657644 25.3903106,630.874037 25.3903106,612.405158 C25.3903106,593.936279 34.3675,578.68336 52.3218788,566.646402 C33.5897502,546.435818 27.4028936,529.8199 33.7613089,516.79865 C40.1197242,503.7774 53.7848788,490.554239 74.7567729,477.129168 C56.7883329,457.918314 51.6668952,438.84704 59.3924599,419.915348 C67.1180245,400.983655 83.3203112,387.577347 107.99932,379.696424 C92.0505738,359.069036 88.7364361,340.448685 98.0569068,323.835372 C107.377378,307.222059 125.848524,299.733332 153.470346,301.369192 C141.968241,276.30561 141.968241,256.799245 153.470346,242.850094 C164.972451,228.900944 185.064698,223.501779 213.747088,226.652601 C202.762225,208.886602 205.915689,190.884201 223.207479,172.645399 C240.49927,154.406596 258.819381,151.560944 278.167813,164.108443 C272.007919,139.600204 276.267368,122.230619 290.946161,111.99969 C305.624954,101.768761 324.009466,101.768761 346.099696,111.99969 C341.035827,87.5358259 345.519975,70.6820016 359.55214,61.4382173 C373.584304,52.1944329 394.49707,52.1944329 422.290439,61.4382173 L431.895883,26.4386467 L290.946161,-10 L-99,323.835372 L-72.9847967,755.642387 L123.502186,976.642387 L185.830443,936.642387 L170.723503,890.911888 Z" id="Path-761" fill-opacity="0.2" fill="#FFFFFF" mask="url(#mask-2)"></path>
            <path d="M336.74563,732.30796 C303.683445,727.986025 281.280524,716.347057 269.536867,697.391056 C250.78108,714.849508 253.574703,736.528796 208.236888,732.30796 C178.011677,729.49407 160.59138,717.855102 155.975996,697.391056" id="Path-760" stroke="#000000" stroke-width="10" stroke-linecap="round" stroke-linejoin="round" mask="url(#mask-2)"></path>
            <path d="M155.975996,697.391056 C154.563402,721.747433 145.701087,737.545082 129.389049,744.784004 C113.077012,752.022926 100.735167,754.31757 92.363513,751.667936 C122.325743,761.310888 137.306858,775.197325 137.306858,793.327248 C137.306858,811.45717 135.821991,820.029497 132.852257,819.044226 C145.300393,808.680296 158.123129,804.891107 171.320465,807.676658 C184.517802,810.462209 190.021128,825.121111 187.830443,851.653364 L256.830443,720.260262 L222.769523,732.841427 L187.830443,726.734403 C177.561044,722.687304 170.433544,718.828047 166.447942,715.156631 C162.462339,711.485215 158.971691,705.563357 155.975996,697.391056 Z" id="Path-763" fill-opacity="0.2" fill="#000000" mask="url(#mask-2)"></path>
            <path d="M168.679774,907.461514 C142.376085,913.019448 122.815934,910.103869 109.99932,898.714779 C97.1827056,887.325688 92.79308,867.462261 96.830443,839.124498 C70.6142177,837.488339 53.2739617,827.140681 44.8096752,808.081525 C36.3453887,789.022369 39.2456718,771.542656 53.5105243,755.642387 C29.7427328,750.59251 15.6482328,737.097257 11.2270245,715.156631 C6.80581617,693.216005 13.0350492,676.476824 29.9147236,664.93909 C10.4921991,652.955715 0.780936778,634.569698 0.780936778,609.78104 C0.780936778,584.992382 10.4921991,570.678082 29.9147236,566.83814 C13.0127109,550.557349 6.78347784,531.759446 11.2270245,510.444433 C15.6705711,489.12942 27.7802382,475.984175 47.5560255,471.008697 C34.0224072,448.29612 31.2280639,426.081428 39.1729956,404.364621 C47.1179273,382.647813 61.1080781,372.314698 81.1434478,373.365276 C69.3995919,347.503494 69.3995919,325.642972 81.1434478,307.78371 C92.8873038,289.924448 108.991822,282.595318 129.457001,285.79632 C117.880895,264.370203 120.479028,244.465874 137.251399,226.083332 C154.023769,207.700791 171.417071,201.361249 189.431304,207.064706 C185.36539,190.973456 191.800234,174.65401 208.735836,158.106368 C225.671438,141.558726 241.320807,135.86261 255.683944,141.01802 C253.791349,120.197959 261.631845,104.540764 279.205432,94.0464354 C296.77902,83.5521065 312.015131,81.7410838 324.913766,88.6133674 C324.470041,68.762688 334.103962,53.4014018 353.815528,42.5295088 C373.527094,31.6576157 391.35699,31.6576157 407.305214,42.5295088 L426.874249,0.540913746 L908.952056,8.6722251 L908.952056,32.6423873 C936.158816,22.5236729 959.393738,22.5236729 978.65682,32.6423873 C997.919903,42.7611017 1009.43031,61.4180951 1013.18803,88.6133674 C1034.38461,75.6528999 1055.45053,75.6528999 1076.3858,88.6133674 C1097.32107,101.573835 1105.05979,119.042052 1099.60197,141.01802 C1125.57801,140.374946 1145.08889,146.071062 1158.1346,158.106368 C1171.18031,170.141673 1177.06075,186.461119 1175.77592,207.064706 C1200.04452,208.075935 1216.92285,215.721735 1226.41092,230.002106 C1235.89899,244.282478 1237.28912,262.880549 1230.58131,285.79632 C1255.86579,288.823159 1272.54584,297.780577 1280.62148,312.668572 C1288.69712,327.556567 1290.05663,347.788802 1284.7,373.365276 C1303.22364,379.315967 1315.77332,391.74278 1322.34903,410.645716 C1328.92474,429.548652 1327.69737,449.669645 1318.66693,471.008697 C1336.03221,479.880517 1346.69806,493.025762 1350.66448,510.444433 C1354.6309,527.863104 1351.23885,546.661007 1340.48834,566.83814 C1355.46172,579.830874 1362.94841,595.355153 1362.94841,613.410979 C1362.94841,631.466805 1355.46172,648.642842 1340.48834,664.93909 C1354.8122,683.875201 1361.11118,700.614382 1359.38526,715.156631 C1357.65934,729.69888 1347.77206,743.194132 1329.72341,755.642387 C1339.363,779.491491 1341.42646,798.068214 1335.91379,811.372556 C1330.40112,824.676898 1316.80736,833.927545 1295.1325,839.124498 C1303.34993,869.115906 1303.34993,891.894911 1295.1325,907.461514 C1286.91507,923.028118 1269.75556,932.755075 1243.65396,936.642387 C1244.98226,963.574836 1240.62471,982.250998 1230.58131,992.670875 C1220.53792,1003.09075 1202.26945,1007.88875 1175.77592,1007.06486 C1180.84628,1027.59213 1178.56575,1043.5011 1168.93431,1054.79179 C1159.30286,1066.08248 1145.00579,1069.47598 1126.04308,1064.97231 C1128.62861,1085.45803 1122.32119,1099.11617 1107.12082,1105.94673 C1093.83991,1111.91475 1060.11447,1133.29708 1053.61982,1126 C1048.96451,1120.76952 1061.28901,1092.79206 1050.09974,1082.4623 C1044.87878,1077.64239 1010.82349,1089.84453 1002.35331,1047.1231 C997.373513,1022.00627 1004.71722,1003.85553 1024.38442,992.670875 C1013.62641,976.056576 1009.89428,958.425292 1013.18803,939.777021 C1016.48178,921.12875 1027.04536,908.489754 1044.87878,901.860032 C1031.21587,889.511738 1024.38442,874.626974 1024.38442,857.20574 C1024.38442,839.784505 1034.12955,823.409767 1053.61982,808.081525 C1026.66529,808.081525 1006.53992,796.245059 993.243691,772.572126 C982.125561,752.777127 982.125561,733.638628 993.243691,715.156631 C987.875979,726.590851 975.119069,731.700368 954.972959,730.485184 C934.82685,729.269999 915.402032,722.159273 896.698506,709.153004 C875.073107,727.944325 857.620897,737.339986 844.341878,737.339986 C818.407403,737.339986 795.876972,727.944325 776.750584,709.153004 C760.867908,726.560739 741.799358,735.9564 719.544933,737.339986 C697.290507,738.723572 673.903658,729.327911 649.384384,709.153004 C629.764068,727.944325 607.580371,737.339986 582.833293,737.339986 C558.086215,737.339986 537.320052,725.269174 520.534804,701.12755 C503.70335,721.265136 482.652906,731.051014 457.383471,730.485184 C432.114037,729.919353 410.183654,718.091277 391.592322,695.000956 C383.444061,718.156385 365.161831,730.592053 336.74563,732.30796 C294.121329,734.881822 271.734971,694.736709 269.536867,697.391056 C246.12767,725.659116 240.52845,750.735982 215.692378,791.98691 C203.727282,811.860072 188.056414,850.351607 168.679774,907.461514 Z" id="Path-759" stroke="#000000" stroke-width="10" stroke-linejoin="round"></path>
        </g>
    </g>
</svg>