<?xml version="1.0" encoding="UTF-8"?>
<svg width="1700px" height="1700px" viewBox="0 0 1700 1700" version="1.1" xmlns="http://www.w3.org/2000/svg" xmlns:xlink="http://www.w3.org/1999/xlink">
    <!-- Generator: Sketch 58 (84663) - https://sketch.com -->
    <title>4_EYES/COUNT:376/IS:GLASSES/SCUMBAG</title>
    <desc>Created with Sketch.</desc>
    <defs>
        <linearGradient x1="50%" y1="1.43894505%" x2="50%" y2="99.0357825%" id="linearGradient-1">
            <stop stop-color="#FFFFFF" offset="0%"></stop>
            <stop stop-color="#535FD2" offset="100%"></stop>
        </linearGradient>
        <path d="M476.117993,836.753012 C471.303805,891.870257 471.303805,929.952587 476.117993,951 C480.932181,972.047413 497.276767,1002.42458 525.151749,1042.13151 L628.938082,1062.51566 L716.5,1054.01564 L782.180676,976.122452 L815.857916,904.5 L876.466595,910.637259 L917,994.382106 L985.001654,1054.01564 L1079.24313,1075.59879 L1179.86226,1042.13151 L1224.69557,924.970786 L1215.71473,836.753012 L1107.65582,787.425913 L1010,787.425913 L876.466595,836.753012 L833.026648,858 L763,812.45744 L657.58254,774.716956 L543.941318,796.765724 L476.117993,836.753012 Z" id="path-2"></path>
        <linearGradient x1="50%" y1="0%" x2="50%" y2="100%" id="linearGradient-3">
            <stop stop-color="#FFFFFF" stop-opacity="0.5" offset="0%"></stop>
            <stop stop-color="#000000" stop-opacity="0.5" offset="100%"></stop>
        </linearGradient>
        <path d="M640.65564,762 C764.65564,762 802.925541,843.623006 847.246257,839.470381 C891.566974,835.317756 935.65564,771.926144 1060.65564,771.926144 C1185.65564,771.926144 1230.79328,828.2901 1239.95391,843.605693 C1249.11454,858.921286 1249.81696,927.979113 1211.79005,1013.74427 C1173.76314,1099.50943 988.365381,1109.64848 925.355539,1026.47165 C868.320645,951.182122 883.131187,919 839.012434,919 C806.318422,919 829.729398,943.046804 757.402447,1028.78732 C725.89912,1066.13317 686.933287,1077.9572 640.65564,1080.42212 C571.090744,1084.12741 495.346717,1057.11706 475.287222,999.393525 C441.883262,903.269734 446.897063,854.22936 456.421982,835.794365 C465.946902,817.35937 516.65564,762 640.65564,762 Z M1061.56299,796.765724 C1000.41369,796.765724 927.835922,820.442464 898.024466,863.165804 C868.21301,905.889143 924.37276,1014.01764 975.726056,1040.27096 C1056.55208,1081.59163 1138.84086,1059.51884 1172,1021.45712 C1205.15914,983.395408 1215.71473,918.405649 1215.71473,872.148027 C1215.71473,825.890405 1122.7123,796.765724 1061.56299,796.765724 Z M633.991327,787.425913 C572.842024,787.425913 476.117993,824.447823 476.117993,870.705445 C476.117993,916.963067 481.065799,964.735341 510.689026,1007.53748 C540.312254,1050.33961 644.935131,1070.0459 708.06535,1038.52214 C771.19557,1006.99837 818.097392,883.528926 790.233388,849.299137 C762.369384,815.069347 695.14063,787.425913 633.991327,787.425913 Z" id="path-4"></path>
    </defs>
    <g id="4_EYES/COUNT:376/IS:GLASSES/SCUMBAG" stroke="none" stroke-width="1" fill="none" fill-rule="evenodd">
        <circle id="Right-Eye" stroke="#000000" stroke-width="10" fill="#FFFFFF" cx="1051" cy="924" r="116"></circle>
        <ellipse id="Right-Pupil" stroke="#000000" stroke-width="10" fill="#E48F2F" cx="1056.45982" cy="923.70954" rx="23.5" ry="21"></ellipse>
        <circle id="Left-Eye" stroke="#000000" stroke-width="10" fill="#FFFFFF" cx="638" cy="924" r="116"></circle>
        <ellipse id="Left-Pupil" stroke="#000000" stroke-width="10" fill="#E48F2F" cx="643.460168" cy="923.70954" rx="23.5" ry="21"></ellipse>
        <path d="M753.894182,808 L522.105818,808 C524.724351,869.745577 575.610182,919 638,919 C700.389818,919 751.275649,869.745577 753.89418,808.000045 Z" id="Combined-Shape" stroke="#000000" stroke-width="10" fill="#A38E71" transform="translate(638.000000, 863.500000) scale(1, -1) translate(-638.000000, -863.500000) "></path>
        <path d="M1166.89418,808 L935.105818,808 C937.724351,869.745577 988.610182,919 1051,919 C1113.38982,919 1164.27565,869.745577 1166.89418,808.000045 Z" id="Combined-Shape-Copy" stroke="#000000" stroke-width="10" fill="#A38E71" transform="translate(1051.000000, 863.500000) scale(1, -1) translate(-1051.000000, -863.500000) "></path>
        <g id="Path-959" fill-opacity="0.5">
            <use fill="#C2F3E5" xlink:href="#path-2"></use>
            <use fill="url(#linearGradient-1)" xlink:href="#path-2"></use>
        </g>
        <polygon id="Path-960" fill-opacity="0.75" fill="#FFFFFF" points="602.651471 774.716956 472.507352 919 472.507352 951 629.26718 774.716956 692.747441 787.425913 492.293054 1005.24658 511.659323 1028.97895 582.627397 1062.51566 789.86527 828.399306 711 774.716956 615.119207 762"></polygon>
        <polygon id="Path-960-Copy" fill-opacity="0.8" fill="#FFFFFF" points="1003.34098 787.425913 888 912 888 944 1046.67896 774.716956 1094.3009 787.425913 907.785702 998.24658 927.151971 1021.97895 998.120045 1055.51566 1205.35792 821.399306 1125.25108 787.425913 1018.14412 787.425913"></polygon>
        <g id="Combined-Shape">
            <use fill="#533E30" fill-rule="evenodd" xlink:href="#path-4"></use>
            <use fill="url(#linearGradient-3)" fill-rule="evenodd" style="mix-blend-mode: soft-light;" xlink:href="#path-4"></use>
            <use stroke="#000000" stroke-width="10" xlink:href="#path-4"></use>
        </g>
        <path d="M1183.35371,1012.59408 C1175.48104,1028.97968 1167.60797,1040.18222 1159.73448,1046.20172 C1137.58962,1063.13208 1102.65137,1072.30055 1067.12108,1072.30055 C1037.7233,1072.30055 1011.91127,1065.62714 995.821722,1059.45525 C986.670268,1055.9448 978.809448,1049.62865 972.23926,1040.50683 C1013.10353,1055.17938 1046.77205,1062.51566 1073.24481,1062.51566 C1090.37095,1062.51566 1113.24706,1056.37623 1138.93636,1042.44731 C1148.28302,1037.37949 1163.08881,1027.42841 1183.35371,1012.59408 Z M514.070481,1016.4839 C543.940756,1041.50506 580.662039,1054.01564 624.234332,1054.01564 C667.806625,1054.01564 704.527909,1042.4965 734.398183,1019.45821 C729.751603,1033.45548 721.952209,1042.95654 711,1047.96137 C693.731294,1055.85266 663.343717,1064.52976 631.186311,1064.52976 C596.061657,1064.52976 554.093209,1054.01564 533.39507,1040.50683 C525.03938,1035.05342 518.59785,1027.04578 514.070481,1016.4839 Z M675.172174,762 L747.052709,787.425913 L833.594034,841.361065 L874.609731,831.311674 L972.23926,781.461961 L1071.96273,770.682198 L1183.35371,796.765724 L1239.14132,841.361065 L1245.17499,865.974417 C1222.21319,809.632779 1164.47577,781.461961 1071.96273,781.461961 C933.193172,781.461961 899.973476,850 845.916361,850 C791.859247,850 754.822384,770.682198 641.975311,770.682198 C566.743929,770.682198 504.469246,794.24182 455.151264,841.361065 L455.151264,841.361065 L462.002541,824.718611 L494.573277,796.765724 L559.770347,770.682198 L675.172174,762 Z" id="Path-963" fill-opacity="0.25" fill="#FFFFFF"></path>
        <path d="M640.65564,762 C764.65564,762 802.925541,843.623006 847.246257,839.470381 C891.566974,835.317756 935.65564,771.926144 1060.65564,771.926144 C1185.65564,771.926144 1230.79328,828.2901 1239.95391,843.605693 C1249.11454,858.921286 1249.81696,927.979113 1211.79005,1013.74427 C1173.76314,1099.50943 988.365381,1109.64848 925.355539,1026.47165 C868.320645,951.182122 883.131187,919 839.012434,919 C806.318422,919 829.729398,943.046804 757.402447,1028.78732 C725.89912,1066.13317 686.933287,1077.9572 640.65564,1080.42212 C571.090744,1084.12741 495.346717,1057.11706 475.287222,999.393525 C441.883262,903.269734 446.897063,854.22936 456.421982,835.794365 C465.946902,817.35937 516.65564,762 640.65564,762 Z M1061.56299,796.765724 C1000.41369,796.765724 927.835922,820.442464 898.024466,863.165804 C868.21301,905.889143 924.37276,1014.01764 975.726056,1040.27096 C1056.55208,1081.59163 1138.84086,1059.51884 1172,1021.45712 C1205.15914,983.395408 1215.71473,918.405649 1215.71473,872.148027 C1215.71473,825.890405 1122.7123,796.765724 1061.56299,796.765724 Z M633.991327,787.425913 C572.842024,787.425913 476.117993,824.447823 476.117993,870.705445 C476.117993,916.963067 481.065799,964.735341 510.689026,1007.53748 C540.312254,1050.33961 644.935131,1070.0459 708.06535,1038.52214 C771.19557,1006.99837 818.097392,883.528926 790.233388,849.299137 C762.369384,815.069347 695.14063,787.425913 633.991327,787.425913 Z" id="Combined-Shape" stroke="#000000" stroke-width="10"></path>
    </g>
</svg>