<?xml version="1.0" encoding="UTF-8"?>
<svg width="1700px" height="1700px" viewBox="0 0 1700 1700" version="1.1" xmlns="http://www.w3.org/2000/svg" xmlns:xlink="http://www.w3.org/1999/xlink">
    <!-- Generator: Sketch 58 (84663) - https://sketch.com -->
    <title>3_HEAD/BASE</title>
    <desc>Created with Sketch.</desc>
    <defs>
        <path d="M516.392207,623.983789 C689.828257,559.152518 825.570113,526.736883 923.617774,526.736883 C1021.66544,526.736883 1167.56469,592.157922 1361.31553,723 L1700,723 L1700,1700 L0,1700 L0,623.983789 L516.392207,623.983789 Z" id="path-1"></path>
    </defs>
    <g id="3_HEAD/BASE" stroke="none" stroke-width="1" fill="none" fill-rule="evenodd">
        <mask id="mask-2" fill="white">
            <use xlink:href="#path-1"></use>
        </mask>
        <g id="Combined-Shape"></g>
        <path d="M620.468858,1174 L568.563639,1222.44805 L526.886058,1147.86234 L459.922501,1191.57832 L437.352537,1104.14636 L370.454971,1134.50128 L370.168877,1134.51543 C370.983196,1128.41051 371.858398,1122.33904 372.794482,1116.30102 C401.579766,930.627313 479.115363,693.526973 605.401274,405 C681.974359,499.811819 803.051756,547.217729 968.633464,547.217729 C1134.21517,547.217729 1276.87993,499.811819 1396.62774,405 L1396.62774,405 C1345.78456,732.514654 1316.99841,976.23777 1310.2693,1136.16935 L1310.24714,1136.16304 L1238.11632,1104 L1214.88277,1190.32347 L1147.86796,1147.86234 L1106.02187,1222.44805 L1055,1174" id="Path" stroke="#000000" stroke-width="10" fill="#A38E71" stroke-linecap="round" stroke-linejoin="round" mask="url(#mask-2)"></path>
        <path d="M635,723 C738.277248,723 822,806.722752 822,910 C822,1013.27725 738.277248,1097 635,1097 C531.722752,1097 448,1013.27725 448,910 C448,806.722752 531.722752,723 635,723 Z M1044,723 C1147.27725,723 1238.0057,806.722752 1238.0057,910 C1238.0057,1013.27725 1147.27725,1097 1044,1097 C940.722752,1097 857,1013.27725 857,910 C857,806.722752 940.722752,723 1044,723 Z" id="EYE-PATCHES" fill="#BAAA8D" mask="url(#mask-2)"></path>
        <path d="M1396.62774,405 L1394.40209,409.230209 C1321.10744,548.330262 1262.8265,638.243153 1219.55928,678.968883 C1154.00288,740.674534 1042.69124,740.674534 958.010441,802.99551 C901.556575,844.542827 859.047165,896.887153 830.482212,960.028487 C814.734638,886.185078 782.009195,826.605736 732.305881,781.29046 C657.75091,713.317546 612.667896,707.328069 575.916184,669.000477 C551.415042,643.448749 561.243405,555.44859 605.401274,405 L605.401274,405 C681.974359,499.811819 803.051756,547.217729 968.633464,547.217729 C1134.21517,547.217729 1276.87993,499.811819 1396.62774,405 Z" id="HEAD-PATCH" stroke="#000000" stroke-width="10" fill="#7C6C57" stroke-linecap="round" stroke-linejoin="round" mask="url(#mask-2)"></path>
        <path d="M1055,1174 L620.468858,1174 C688.062288,1246.45524 760.484145,1280.61929 837.734429,1276.49213 C914.984713,1272.36497 987.40657,1238.20093 1055,1174 Z" id="CHIN" stroke="#A38E71" stroke-width="10" fill="#A38E71"></path>
        <path d="M620.468858,1174 L568.563639,1222.44805 L526.886058,1147.86234 L459.922501,1191.57832 L437.352537,1104.14636 L370.454971,1134.50128 L370.168877,1134.51543" id="DETAILS-LEFT" stroke="#000000" stroke-width="10" stroke-linecap="round" stroke-linejoin="round"></path>
        <path d="M1310.2693,1136.16935 L1310.24714,1136.16304 L1238.11632,1104 L1214.88277,1190.32347 L1147.86796,1147.86234 L1106.02187,1222.44805 L1055,1174" id="DETAILS-RIGHT" stroke="#000000" stroke-width="10" stroke-linecap="round" stroke-linejoin="round"></path>
        <path d="M620.468858,1174 C688.062288,1246.45524 760.484145,1280.61929 837.734429,1276.49213" id="Path" stroke="#000000" stroke-width="10" stroke-linecap="round"></path>
    </g>
</svg>