<?xml version="1.0" encoding="UTF-8"?>
<svg width="1700px" height="1700px" viewBox="0 0 1700 1700" version="1.1" xmlns="http://www.w3.org/2000/svg" xmlns:xlink="http://www.w3.org/1999/xlink">
    <!-- Generator: Sketch 58 (84663) - https://sketch.com -->
    <title>4_EYES/COUNT:360/BLOOD_SHOT</title>
    <desc>Created with Sketch.</desc>
    <defs>
        <radialGradient cx="74.4467882%" cy="50%" fx="74.4467882%" fy="50%" r="74.4467882%" id="radialGradient-1">
            <stop stop-color="#FFFFFF" stop-opacity="0.5" offset="0%"></stop>
            <stop stop-color="#FE9595" stop-opacity="0.5" offset="100%"></stop>
        </radialGradient>
        <circle id="path-2" cx="121" cy="121" r="121"></circle>
        <circle id="path-3" cx="121" cy="121" r="121"></circle>
    </defs>
    <g id="4_EYES/COUNT:360/BLOOD_SHOT" stroke="none" stroke-width="1" fill="none" fill-rule="evenodd">
        <g id="Group-2" transform="translate(517.000000, 803.000000)">
            <g id="Left-Eye">
                <use fill="#FFFFFF" xlink:href="#path-2"></use>
                <circle stroke="#000000" stroke-width="10" stroke-linejoin="square" fill="url(#radialGradient-1)" cx="121" cy="121" r="116"></circle>
            </g>
            <g id="Group" transform="translate(5.282699, 126.718722)" stroke="#F6A1A1" stroke-linecap="round" stroke-width="5">
                <path d="M11.7170826,42.1472942 C12.9577338,13.5849276 7.29566874,39.9395969 41.8691275,27.7303014 C45.2576228,26.5336858 41.402753,19.231351 44.401575,17.2512359 L49.6528358,16.3300307 C51.3486723,15.2102739 51.3854311,12.2150977 53.2505691,11.4082662 C62.4459537,7.43047701 74.0252977,19.9150441 80.8297198,24.2016903 C81.5782111,24.6732244 82.6948924,24.3717543 83.4714894,23.9481025 L92.5968487,15.5762265 C95.376664,14.0597724 98.8271715,14.4399595 101.942333,13.871826" id="Path-970"></path>
                <path d="M41.9118692,27.9161366 C38.404448,33.4158111 33.5486375,38.2599181 31.3896055,44.4151601 C24.6282285,63.6913503 42.8579357,52.7237452 19.0369987,66.1898135" id="Path-971"></path>
                <path d="M47.6020965,4.46116807 C44.0237105,4.46116807 40.3525056,3.65143454 36.8669385,4.46116807 C31.6008785,5.68452865 27.1872013,10.8683453 21.7966536,10.4560412 C17.0689249,10.0944338 14.3405714,4.46201635 10.06548,2.41121843 C6.95479402,0.918995759 3.35516,0.803739478 -1.8189894e-12,9.66338121e-13" id="Path-972"></path>
                <path d="M36.5549633,81.4251427 C45.2907531,80.4783626 53.8535954,81.3595264 60.3298532,73.6456049 C62.9081966,70.5745199 63.5023806,66.2333918 64.3992756,62.3250678 C65.1704872,58.9644237 62.8767031,54.4797987 65.292632,52.0197208 C70.8391463,46.3718489 80.7618806,47.0078101 87.8608331,46.8377549" id="Path-973"></path>
                <path d="M181.537108,47.3214126 C183.92474,68.9508971 191.598628,73.9680808 180.28363,91.8318655" id="Path-974"></path>
                <path d="M144.663975,104.41659 C150.460927,100.273012 158.359516,95.980371 161.1495,88.6785525 C163.968003,81.3020957 152.476174,59.4538452 160.857662,57.2827158 C168.371729,55.3362819 176.3558,58.1810243 184.104869,58.6301785" id="Path-975"></path>
                <path d="M67.9731949,103.573354 C75.3526159,100.743512 81.7177777,100.477684 85.1647973,92.617726 C86.2131151,90.2273324 83.6240379,85.9545291 85.9794073,84.8297238 C92.6995632,81.6205172 102.403493,86.4688908 108.09576,81.6670579 C116.749837,74.3667274 97.4672071,62.6029978 106.346878,45.7237554 C107.446127,43.6342083 111.283959,43.9340796 112.222114,41.7674185 C113.978454,37.7111648 113.249248,32.9869461 113.762815,28.5967098" id="Path-976"></path>
                <path d="M109.280535,75.2230511 C122.321026,60.523616 136.448579,69.861771 142.739314,48.5346287" id="Path-977"></path>
                <path d="M117.135661,110.866841 C117.135661,100.770843 116.545659,115.834927 134.024197,95.4333252 C136.07089,93.0443483 135.189898,89.2198446 136.28403,86.2704311 C137.136132,83.9734483 138.637786,81.972913 139.814664,79.8241539" id="Path-978"></path>
                <path d="M210.435897,49.8920365 C200.613019,35.3535281 200.18003,41.4974559 201.342323,33.8071044" id="Path-979"></path>
                <path d="M207.554952,46.9246697 C207.273074,56.6454148 206.653831,51.2581054 210.861982,62.8533427" id="Path-980"></path>
                <path d="M219.726153,49.9621951 C215.058141,49.2167073 210.390128,48.4712195 205.722116,47.7257316" id="Path-981"></path>
                <path d="M214.279568,17.738731 C220.066777,24.1654935 226.582405,34.5423836 220.337715,43.1241353" id="Path-982"></path>
            </g>
            <circle id="Left-Eye" stroke="#000000" stroke-width="10" cx="121" cy="121" r="116"></circle>
            <ellipse id="Left-Pupil" stroke="#000000" stroke-width="10" fill="#E48F2F" cx="177.460168" cy="120.70954" rx="23.5" ry="21"></ellipse>
            <path d="M236.894182,5 L5.10581816,5 C7.72435068,66.7455771 58.6101819,116 121,116 C183.389818,116 234.275649,66.7455771 236.89418,5.00004517 Z" id="Combined-Shape" stroke="#000000" stroke-width="10" fill="#A38E71" transform="translate(121.000000, 60.500000) scale(1, -1) translate(-121.000000, -60.500000) "></path>
        </g>
        <g id="Group-2-Copy" transform="translate(930.000000, 803.000000)">
            <g id="Left-Eye">
                <use fill="#FFFFFF" xlink:href="#path-3"></use>
                <circle stroke="#000000" stroke-width="10" stroke-linejoin="square" fill="url(#radialGradient-1)" cx="121" cy="121" r="116"></circle>
            </g>
            <g id="Group" transform="translate(5.282699, 126.718722)" stroke="#F6A1A1" stroke-linecap="round" stroke-width="5">
                <path d="M11.7170826,42.1472942 C12.9577338,13.5849276 7.29566874,39.9395969 41.8691275,27.7303014 C45.2576228,26.5336858 41.402753,19.231351 44.401575,17.2512359 L49.6528358,16.3300307 C51.3486723,15.2102739 51.3854311,12.2150977 53.2505691,11.4082662 C62.4459537,7.43047701 74.0252977,19.9150441 80.8297198,24.2016903 C81.5782111,24.6732244 82.6948924,24.3717543 83.4714894,23.9481025 L92.5968487,15.5762265 C95.376664,14.0597724 98.8271715,14.4399595 101.942333,13.871826" id="Path-970"></path>
                <path d="M41.9118692,27.9161366 C38.404448,33.4158111 33.5486375,38.2599181 31.3896055,44.4151601 C24.6282285,63.6913503 42.8579357,52.7237452 19.0369987,66.1898135" id="Path-971"></path>
                <path d="M47.6020965,4.46116807 C44.0237105,4.46116807 40.3525056,3.65143454 36.8669385,4.46116807 C31.6008785,5.68452865 27.1872013,10.8683453 21.7966536,10.4560412 C17.0689249,10.0944338 14.3405714,4.46201635 10.06548,2.41121843 C6.95479402,0.918995759 3.35516,0.803739478 -1.8189894e-12,9.66338121e-13" id="Path-972"></path>
                <path d="M36.5549633,81.4251427 C45.2907531,80.4783626 53.8535954,81.3595264 60.3298532,73.6456049 C62.9081966,70.5745199 63.5023806,66.2333918 64.3992756,62.3250678 C65.1704872,58.9644237 62.8767031,54.4797987 65.292632,52.0197208 C70.8391463,46.3718489 80.7618806,47.0078101 87.8608331,46.8377549" id="Path-973"></path>
                <path d="M181.537108,47.3214126 C183.92474,68.9508971 191.598628,73.9680808 180.28363,91.8318655" id="Path-974"></path>
                <path d="M144.663975,104.41659 C150.460927,100.273012 158.359516,95.980371 161.1495,88.6785525 C163.968003,81.3020957 152.476174,59.4538452 160.857662,57.2827158 C168.371729,55.3362819 176.3558,58.1810243 184.104869,58.6301785" id="Path-975"></path>
                <path d="M67.9731949,103.573354 C75.3526159,100.743512 81.7177777,100.477684 85.1647973,92.617726 C86.2131151,90.2273324 83.6240379,85.9545291 85.9794073,84.8297238 C92.6995632,81.6205172 102.403493,86.4688908 108.09576,81.6670579 C116.749837,74.3667274 97.4672071,62.6029978 106.346878,45.7237554 C107.446127,43.6342083 111.283959,43.9340796 112.222114,41.7674185 C113.978454,37.7111648 113.249248,32.9869461 113.762815,28.5967098" id="Path-976"></path>
                <path d="M109.280535,75.2230511 C122.321026,60.523616 136.448579,69.861771 142.739314,48.5346287" id="Path-977"></path>
                <path d="M117.135661,110.866841 C117.135661,100.770843 116.545659,115.834927 134.024197,95.4333252 C136.07089,93.0443483 135.189898,89.2198446 136.28403,86.2704311 C137.136132,83.9734483 138.637786,81.972913 139.814664,79.8241539" id="Path-978"></path>
                <path d="M210.435897,49.8920365 C200.613019,35.3535281 200.18003,41.4974559 201.342323,33.8071044" id="Path-979"></path>
                <path d="M207.554952,46.9246697 C207.273074,56.6454148 206.653831,51.2581054 210.861982,62.8533427" id="Path-980"></path>
                <path d="M219.726153,49.9621951 C215.058141,49.2167073 210.390128,48.4712195 205.722116,47.7257316" id="Path-981"></path>
                <path d="M214.279568,17.738731 C220.066777,24.1654935 226.582405,34.5423836 220.337715,43.1241353" id="Path-982"></path>
            </g>
            <circle id="Left-Eye" stroke="#000000" stroke-width="10" cx="121" cy="121" r="116"></circle>
            <ellipse id="Left-Pupil" stroke="#000000" stroke-width="10" fill="#E48F2F" cx="177.460168" cy="120.70954" rx="23.5" ry="21"></ellipse>
            <path d="M236.894182,5 L5.10581816,5 C7.72435068,66.7455771 58.6101819,116 121,116 C183.389818,116 234.275649,66.7455771 236.89418,5.00004517 Z" id="Combined-Shape" stroke="#000000" stroke-width="10" fill="#A38E71" transform="translate(121.000000, 60.500000) scale(1, -1) translate(-121.000000, -60.500000) "></path>
        </g>
        <path d="M740.862576,976.556477 C725.269419,1029.12673 694.412769,1057.71089 648.292624,1062.30895" id="Path-983" stroke="#000000" stroke-width="10" stroke-linecap="round"></path>
        <path d="M1039.56995,977 C1023.9768,1029.57025 993.120145,1058.15441 947,1062.75247" id="Path-983-Copy" stroke="#000000" stroke-width="10" stroke-linecap="round" transform="translate(993.284976, 1019.876237) scale(-1, 1) translate(-993.284976, -1019.876237) "></path>
    </g>
</svg>