<?xml version="1.0" encoding="UTF-8"?>
<svg width="1700px" height="1700px" viewBox="0 0 1700 1700" version="1.1" xmlns="http://www.w3.org/2000/svg" xmlns:xlink="http://www.w3.org/1999/xlink">
    <!-- Generator: Sketch 58 (84663) - https://sketch.com -->
    <title>8_HATS/COUNT:101/PONY</title>
    <desc>Created with Sketch.</desc>
    <g id="8_HATS/COUNT:101/PONY" stroke="none" stroke-width="1" fill="none" fill-rule="evenodd">
        <path d="M840.09434,536.319068 C839.784633,555.807137 865.085214,567.518873 915.996083,571.454274 C966.906952,575.389676 998.262419,565.918673 1010.06248,543.041265 L982.482525,550.611252 L920.738978,553.148083 L860.745959,545.669396 L840.09434,536.319068 Z" id="Path-629" fill-opacity="0.2" fill="#000000"></path>
        <path d="M887.981886,484.039236 C871.26534,437.186686 848.359051,411.488383 819.263017,406.944326 C790.166983,402.400269 760.43191,417.056913 730.057799,450.914257 C729.126511,423.641212 739.449191,399.199935 761.02584,377.590424 C782.602489,355.980913 806.30974,344.619038 832.147594,343.504798 C825.191697,336.388845 811.599097,332.830868 791.369794,332.830868 C771.140491,332.830868 755.059931,336.388845 743.128112,343.504798 C753.707743,321.617989 771.863529,307.392529 797.59547,300.828419 C823.327411,294.264308 844.21303,296.96873 860.252327,308.941686 C862.86557,296.698307 858.065891,287.65048 845.85329,281.798205 C833.640689,275.94593 821.35324,271.456036 808.990943,268.328523 C843.165199,251.600539 871.696248,251.600539 894.584092,268.328523 C917.471936,285.056506 936.128565,306.557288 950.553979,332.830868 C949.866561,310.853699 959.586731,295.638152 979.71449,287.184227 C999.842248,278.730302 1024.12737,279.861099 1052.56986,290.576617 C1034.26004,296.307017 1018.7221,306.712242 1005.95604,321.792292 C993.189987,336.872342 988.175772,356.574514 990.9134,380.898806 C1038.30477,351.047823 1083.98717,336.122332 1127.96062,336.122332 C1171.93406,336.122332 1193.73264,363.266526 1193.35634,417.554913 C1186.36221,404.158811 1177.05827,396.057135 1165.44452,393.249885 C1153.83078,390.442635 1139.4399,390.442635 1122.27189,393.249885 C1141.1864,397.860822 1157.76244,408.624285 1172,425.540274 C1186.23756,442.456262 1188.19112,467.021232 1177.86069,499.235183 C1170.00401,476.297503 1158.76298,462.509595 1144.13761,457.87146 C1129.51224,453.233324 1112.04374,450.914257 1091.73209,450.914257 C1107.69336,459.663003 1117.87329,470.704663 1122.27189,484.039236 C1125.67608,494.359196 1124.661,510.468534 1119.22663,532.367248 C1113.7697,533.663522 1104.94521,536.319068 1099.48436,536.319068 C1068.25545,501.273624 1038.51714,486.155156 1010.26943,490.963663 C977.875258,496.47801 971.423247,509.898007 990.9134,531.223654 L869.672625,511.711788 L887.981886,484.039236 Z" id="Path-620" stroke="#000000" stroke-width="10" fill="#A38E71" stroke-linejoin="round"></path>
        <path d="M733.204164,440.657743 C760.647265,403.659754 783.766097,383.221965 802.560658,379.344375 C821.35522,375.466785 846.153275,378.223869 876.954826,387.615628 C858.653544,360.538521 842.597535,344.635133 828.786799,339.905465 C808.070695,332.810962 800.670711,330.424265 780.498615,333.173084 C767.050551,335.005631 754.593717,338.449535 743.128112,343.504798 C765.73026,323.776778 791.099793,315.178244 819.236711,317.709194 C847.373628,320.240145 866.613,327.638902 876.954826,339.905465 C867.788091,322.079373 862.266204,309.44903 860.389165,302.014435 C857.573607,290.862542 849.714753,278.975565 841.939389,278.975565 C836.755813,278.975565 825.772997,275.426551 808.990943,268.328523 C845.572464,263.348156 868.227092,265.136109 876.954826,273.692381 C882.237194,278.870974 894.691558,282.616222 915.996083,320.665946 C922.462527,332.214966 930.041836,354.531527 938.734009,387.615628 C937.331275,377.326467 937.331275,368.951403 938.734009,362.490436 C940.136744,356.02947 944.076734,346.257019 950.553979,333.173084 C958.188816,320.598112 970.01561,310.211896 986.03436,302.014435 C1002.05311,293.816974 1019.78456,290.229313 1039.22872,291.251451 L1005.18419,317.709194 L994.281968,339.905465 L989.360132,379.344375 L950.553979,440.657743 C989.982015,397.334866 1031.18196,371.279097 1074.15382,362.490436 C1138.61161,349.307445 1148.79726,356.477968 1160.62563,365.337439 C1168.51121,371.243753 1177.99156,384.464607 1189.06669,405 L1172.0551,396.050801 L1132.59569,390.619772 L1120.19745,396.050801 C1092.8977,398.140951 1074.13477,402.363357 1063.90865,408.718018 C1053.68253,415.072679 1046.5473,421.77452 1042.50296,428.823541 C1071.14844,419.754738 1097.0466,416.809447 1120.19745,419.987666 C1143.3483,423.165885 1160.63418,435.840574 1172.0551,458.011732 L1176.80856,488.476591 L1184.79441,458.011732 L1177.86069,499.235183 L1166.9015,477.652683 L1149.17049,458.011732 L1109.03847,449.903317 L1086.62175,449.903317 L1033.33108,453.858233 C1059.45131,455.332867 1078.59927,463.26435 1090.77495,477.652683 C1102.95063,492.041017 1111.52179,510.278728 1116.48844,532.365816 L1099.48436,536.319068 L1074.15382,512.066648 L1039.22872,488.476591 L1013.10722,488.476591 L980.043568,505.120981 L932.319625,488.476591 L888.30812,484.116396 L871.845598,449.903317 L841.939389,412.90991 L806.176331,405 L775.792859,412.90991 L733.204164,440.657743 Z" id="Path-627" fill="#7C6C57"></path>
        <path d="M887.981886,484.039236 C871.26534,437.186686 848.359051,411.488383 819.263017,406.944326 C790.166983,402.400269 760.43191,417.056913 730.057799,450.914257 C729.126511,423.641212 739.449191,399.199935 761.02584,377.590424 C782.602489,355.980913 806.30974,344.619038 832.147594,343.504798 C825.191697,336.388845 811.599097,332.830868 791.369794,332.830868 C771.140491,332.830868 755.059931,336.388845 743.128112,343.504798 C753.707743,321.617989 771.863529,307.392529 797.59547,300.828419 C823.327411,294.264308 844.21303,296.96873 860.252327,308.941686 C862.86557,296.698307 858.065891,287.65048 845.85329,281.798205 C833.640689,275.94593 821.35324,271.456036 808.990943,268.328523 C843.165199,251.600539 871.696248,251.600539 894.584092,268.328523 C917.471936,285.056506 936.128565,306.557288 950.553979,332.830868 C949.866561,310.853699 959.586731,295.638152 979.71449,287.184227 C999.842248,278.730302 1024.12737,279.861099 1052.56986,290.576617 C1034.26004,296.307017 1018.7221,306.712242 1005.95604,321.792292 C993.189987,336.872342 988.175772,356.574514 990.9134,380.898806 C1038.30477,351.047823 1083.98717,336.122332 1127.96062,336.122332 C1171.93406,336.122332 1193.73264,363.266526 1193.35634,417.554913 C1186.36221,404.158811 1177.05827,396.057135 1165.44452,393.249885 C1153.83078,390.442635 1139.4399,390.442635 1122.27189,393.249885 C1141.1864,397.860822 1157.76244,408.624285 1172,425.540274 C1186.23756,442.456262 1188.19112,467.021232 1177.86069,499.235183 C1170.00401,476.297503 1158.76298,462.509595 1144.13761,457.87146 C1129.51224,453.233324 1112.04374,450.914257 1091.73209,450.914257 C1107.69336,459.663003 1117.87329,470.704663 1122.27189,484.039236 C1125.67608,494.359196 1124.661,510.468534 1119.22663,532.367248 C1113.7697,533.663522 1104.94521,536.319068 1099.48436,536.319068 C1068.25545,501.273624 1038.51714,486.155156 1010.26943,490.963663 C977.875258,496.47801 971.423247,509.898007 990.9134,531.223654 L869.672625,511.711788 L887.981886,484.039236 Z" id="Path-620" stroke="#000000" stroke-width="10" stroke-linejoin="round"></path>
        <path d="M865.224455,495.857018 C881.210662,484.110123 903.152214,481.178106 931.049112,487.060967 C972.894458,495.885258 1010.06248,520.919961 1010.06248,536.980031 C1010.06248,553.040102 965.03578,555.415004 916.143487,553.040102 C867.251195,550.6652 838.563566,543.084655 842.257769,530.159514 C845.951972,517.234373 857.458394,516.617677 857.458394,509.942093 C857.458394,505.491703 860.047081,500.796678 865.224455,495.857018 Z" id="Path-621" stroke="#000000" stroke-width="10" fill="#97BDFF"></path>
        <path d="M913.908693,484.116396 C918.584879,439.594621 915.404347,407.427698 904.367098,387.615628" id="Path-622" stroke="#000000" stroke-width="5" stroke-linecap="round" stroke-linejoin="round"></path>
        <path d="M943.45749,488.476591 C971.483511,456.597359 995.87423,440.657743 1016.62965,440.657743" id="Path-623" stroke="#000000" stroke-width="5" stroke-linecap="round"></path>
        <path d="M847.086643,522.333974 C849.804603,513.40173 869.716725,510.29756 906.823009,513.021464" id="Path-624" stroke="#000000" stroke-width="10" stroke-linecap="round" stroke-linejoin="round"></path>
        <path d="M922.034367,484.116396 L960.40126,494.910051 L999.583945,517.200311 L1010.06248,538.687655 L991.986082,548.768855 L950.675984,556.201555 L895.481305,553.825163 L865.757726,548.768855 L844.399875,536.319068 L844.399875,525.797151 L857.159885,515.440498 L859.556896,503.169424 L883.398307,488.476591 L922.034367,484.116396 Z M904.367098,488.476591 C883.959875,494.06042 876.970278,499.374434 883.398307,504.418632 C889.826336,509.46283 898.288899,512.012168 908.785995,512.066648 C888.320053,512.018657 876.186803,514.320034 872.386246,518.970779 C866.685411,525.946897 862.44941,543.006002 888.621921,549.153509 C906.070262,553.251847 927.750016,554.196587 953.661182,551.987727 C962.193417,550.099428 967.631649,547.01591 969.975879,542.737173 C973.492224,536.319068 957.439617,523.190641 947.586877,521.08071 C941.018384,519.67409 935.087742,518.380623 929.794949,517.200311 C936.347247,510.870912 948.350652,509.935295 965.805164,514.393461 C991.986932,521.08071 963.563474,498.718836 943.45749,493.784401 C930.0535,490.494777 917.02337,488.725507 904.367098,488.476591 Z" id="Combined-Shape" fill-opacity="0.2" fill="#000000"></path>
        <path d="M890.037736,484.116396 L868.100159,444.430098 C875.79702,445.421902 881.898408,449.026032 886.404322,455.242486 C890.910237,461.45894 895.099708,467.465237 898.972737,473.261376 C901.817884,462.376736 901.817884,450.859323 898.972737,438.709137 C896.12759,426.55895 891.337803,413.972412 884.603378,400.949522 C897.441572,407.541788 905.515567,416.667014 908.825365,428.325201 C912.135163,439.983387 913.829606,458.580452 913.908693,484.116396 C922.682425,466.158163 928.276834,451.671945 930.691921,440.657743 C933.107008,429.643541 933.826161,412.818987 932.849379,390.184081 C946.594414,409.225755 950.796048,427.83239 945.454279,446.003984 C940.112511,464.175579 935.310789,477.86124 931.049112,487.060967 C941.62239,474.992039 953.099081,463.442315 965.479186,452.411794 C977.85929,441.381272 994.909443,437.463256 1016.62965,440.657743 C996.629006,444.393284 981.602471,450.761108 971.550041,459.761215 C961.497611,468.761322 951.769231,478.333114 942.364902,488.476591 C958.772942,479.937398 972.500209,473.377398 983.546704,468.796592 C994.593199,464.215785 1006.90651,464.215785 1020.48663,468.796592 C1012.59781,468.049029 1003.83025,469.53729 994.183943,473.261376 C984.537641,476.985462 974.470813,483.50205 963.983461,492.81114 C975.24935,486.688692 985.316178,482.625904 994.183943,480.622779 C1003.05171,478.619653 1014.26161,481.237591 1027.81364,488.476591 L995.865585,494.705118 L981.328218,504.63538 L966.853751,497.876778 L947.956897,492.81114 L922.220994,488.476591 L896.564578,484.116396 L890.037736,484.116396 Z" id="Path-628" fill-opacity="0.2" fill="#000000"></path>
    </g>
</svg>