<?xml version="1.0" encoding="UTF-8"?>
<svg width="1700px" height="1700px" viewBox="0 0 1700 1700" version="1.1" xmlns="http://www.w3.org/2000/svg" xmlns:xlink="http://www.w3.org/1999/xlink">
    <!-- Generator: Sketch 58 (84663) - https://sketch.com -->
    <title>9_PLUS/COUNT:114/WITH:PARENTHOOD/PARENTHOOD</title>
    <desc>Created with Sketch.</desc>
    <defs>
        <path d="M491.713856,1446.55737 C500.307752,1513.06467 512.815736,1558.70938 529.237806,1583.49152 C545.659877,1608.27365 565.210958,1632.82655 587.89105,1657.15021 L469.237806,1657.15021 L435.237806,1493.52809 L491.713856,1446.55737 Z" id="path-1"></path>
    </defs>
    <g id="9_PLUS/COUNT:114/WITH:PARENTHOOD/PARENTHOOD" stroke="none" stroke-width="1" fill="none" fill-rule="evenodd">
        <g id="Path-1897" stroke-linejoin="round">
            <use fill="#97BDFF" xlink:href="#path-1"></use>
            <use stroke="#000000" stroke-width="10" fill-opacity="0.2" fill="#000000" xlink:href="#path-1"></use>
        </g>
        <path d="M174.974303,1493.52809 C150.213535,1493.52809 93.7574123,1522.95594 79.0302518,1599.90638 C69.2121447,1651.20668 73.7663639,1688.7691 92.6929093,1712.59365 L200.727213,1711.36525 C179.871078,1688.54201 169.44301,1665.52413 169.44301,1642.31159 C169.44301,1619.09906 177.538338,1592.77006 193.728995,1563.32458 C197.733046,1516.79359 191.481482,1493.52809 174.974303,1493.52809 Z" id="Path-1896" stroke="#000000" stroke-width="10" fill="#A38E71"></path>
        <path d="M200.727213,1711.36525 C174.321496,1695.38718 161.118638,1669.9944 161.118638,1635.18691 C161.118638,1600.37943 167.720067,1577.41515 180.922926,1566.29408 C170.043823,1546.01902 167.324048,1525.77944 172.763599,1505.57535 C180.922926,1475.2692 215.594377,1414.86815 234.416091,1400.33407 C253.237806,1385.79999 295.141842,1375.04761 309.954305,1375.04761 C324.766768,1375.04761 371.740603,1371.54903 401.649336,1380.18969 C431.558068,1388.83034 473.433293,1413.29999 487.153749,1431.5977 C500.874206,1449.89541 500.896824,1583.26396 500.896824,1615.39702 C500.896824,1636.81906 481.270046,1670.65079 442.016491,1716.89222 L200.727213,1711.36525 Z" id="Path-1889" stroke="#000000" stroke-width="10" fill="#97BDFF" stroke-linecap="round" stroke-linejoin="round"></path>
        <path d="M178.414638,1569.25821 L189.202096,1581.54343 C174.818819,1603.18114 171.223,1626.33333 178.414638,1651 C185.606276,1675.66667 196.869239,1693.02521 212.203527,1703.07563 L189.202096,1703.07563 C170.47979,1685.77605 161.118638,1665.52069 161.118638,1642.30953 C161.118638,1619.09837 166.883971,1594.74793 178.414638,1569.25821 Z M248.237806,1393.15199 L256.466146,1402.26073 C242.508122,1413.03417 232.765342,1422.4635 227.237806,1430.54873 C202.652361,1466.51033 182.699622,1511.79873 184.060987,1530.10896 C185.881463,1554.59421 193.68213,1578.91151 207.462985,1603.06087 C182.799782,1570.29728 170.468181,1545.18679 170.468181,1527.72941 C170.468181,1510.27203 177.273599,1487.86514 190.884435,1460.50875 C201.192864,1444.07257 209.643988,1431.98254 216.237806,1424.23865 C222.831624,1416.49476 233.498291,1406.13254 248.237806,1393.15199 Z" id="Path-1903" fill-opacity="0.5" fill="#FFFFFF"></path>
        <path d="M200.727213,1711.36525 C174.321496,1695.38718 161.118638,1669.9944 161.118638,1635.18691 C161.118638,1600.37943 167.720067,1577.41515 180.922926,1566.29408 C170.043823,1546.01902 167.324048,1525.77944 172.763599,1505.57535 C180.922926,1475.2692 215.594377,1414.86815 234.416091,1400.33407 C253.237806,1385.79999 295.141842,1375.04761 309.954305,1375.04761 C324.766768,1375.04761 371.740603,1371.54903 401.649336,1380.18969 C431.558068,1388.83034 473.433293,1413.29999 487.153749,1431.5977 C500.874206,1449.89541 500.896824,1583.26396 500.896824,1615.39702 C500.896824,1636.81906 481.270046,1670.65079 442.016491,1716.89222 L200.727213,1711.36525 Z" id="Path-1889" stroke="#000000" stroke-width="10" stroke-linecap="round" stroke-linejoin="round"></path>
        <path d="M178.414638,1561.4579 C189.695874,1587.47823 210.949514,1607.77297 242.175559,1622.34211 C273.401603,1636.91124 296.48916,1643.50848 311.438229,1642.13381 C338.845969,1609.69956 352.549839,1587.5879 352.549839,1575.79882 C352.549839,1558.11521 332.571185,1553.33798 319.178539,1545.61968 C313.817891,1542.5303 287.539855,1535.10651 285.184531,1518.28589 C283.616944,1507.09092 304.291318,1492.4105 296.237806,1468.13715" id="Path-1890" stroke="#000000" stroke-width="10" stroke-linecap="round" stroke-linejoin="round"></path>
        <path d="M323.527103,1581.63284 C344.248477,1564.5383 367.661432,1567.29408 387.914523,1577.0315 C408.167615,1586.76892 429.270705,1598.91944 425.664398,1616.91062 C422.058091,1634.90181 384.714467,1613.11121 381.938127,1616.91062 C379.161786,1620.71004 402.667336,1648.56011 384.961675,1662.19251 C367.256014,1675.8249 348.233999,1627.82072 345.004464,1629.75395 C341.774929,1631.68719 367.461443,1659.67636 349.234587,1673.83818 C331.007731,1688 309.398235,1648.608 304.861963,1632.75931 C300.325692,1616.91062 302.80573,1598.72738 323.527103,1581.63284 Z" id="Path-1893" stroke="#000000" stroke-width="10" fill="#A38E71"></path>
        <path d="M523.105256,1624.0315 C483.791315,1609.78401 411.035729,1597.84033 358.531658,1618.87472 C306.027587,1639.90912 282.148339,1673.47209 282.148339,1698 C282.148339,1714.35194 432.82786,1720.08896 734.186901,1715.21105 C619.675098,1663.92301 549.314549,1633.52983 523.105256,1624.0315 Z" id="Path-1887" stroke="#000000" stroke-width="10" fill="#A38E71"></path>
        <path d="M295.86019,1716.89222 C303.121255,1694.92815 319.590213,1676.68872 345.267064,1662.17393 C370.943915,1647.65914 396.540924,1643.9345 422.058091,1651" id="Path-1888" stroke="#000000" stroke-width="10" stroke-linecap="round" stroke-linejoin="round"></path>
        <path d="M296.237806,1757.36214 C303.498871,1735.39807 319.967829,1717.15864 345.644681,1702.64385 C371.321532,1688.12907 396.918541,1684.40442 422.435708,1691.46992" id="Path-1888-Copy" stroke="#000000" stroke-width="10" stroke-linecap="round" stroke-linejoin="round"></path>
        <path d="M531.252088,1624.0315 C546.190071,1613.12492 560.941056,1610.8524 575.505043,1617.21394 C597.351023,1626.75624 601.801933,1635.37298 608.380792,1635.37298 C614.959651,1635.37298 634.589115,1648.85039 638.731047,1656.91088 C642.872979,1664.97138 649.392897,1680.99346 638.731047,1694.99902 C631.623147,1704.33606 623.561099,1702.00305 614.544902,1688 C610.149347,1689.69993 605.579262,1689.69993 600.834648,1688 C596.090034,1686.30007 591.775501,1682.58568 587.89105,1676.85683 C584.04208,1679.0097 579.91341,1679.0097 575.505043,1676.85683 C568.892492,1673.62753 563.405025,1666.31802 563.405025,1658.65901 C563.405025,1651 559.121884,1640.07405 552.172891,1635.37298 C547.540228,1632.23893 540.566628,1628.45844 531.252088,1624.0315 Z" id="Path-1894" stroke="#000000" stroke-width="10" fill="#A38E71" stroke-linejoin="round"></path>
        <path d="M612.525117,1689.68333 C620.837674,1678.5178 624.603021,1669.35419 623.821159,1662.19251 C623.039298,1655.03082 617.271929,1646.09296 606.519055,1635.37891" id="Path-1895" stroke="#000000" stroke-width="10"></path>
        <path d="M588.243869,1678.30442 C596.556425,1667.13889 600.321773,1657.97528 599.539911,1650.81359 C598.758049,1643.65191 593.127964,1633.60228 582.649657,1620.66472" id="Path-1895-Copy" stroke="#000000" stroke-width="10" stroke-linejoin="round"></path>
        <g id="Group" transform="translate(105.237806, 952.000000)">
            <path d="M588,0 C558.87483,187.856137 542.384881,327.651051 538.530153,419.384742 L538.517463,419.381123 L497.19781,400.933021 L483.888628,450.446513 L445.499648,426.091619 L421.528399,468.872553 L392.300867,441.083681 C371.931206,460.618499 313.618729,500.508825 259.06087,500 C208.763592,499.521464 161.995996,460.223003 143.382647,441.083681 L113.649095,468.872553 L89.7743747,426.091619 L51.4147551,451.166271 L38.4857041,401.016967 L0.163887319,418.427972 L0,418.436088 C0.466477466,414.934422 0.967830755,411.451942 1.50405987,407.98865 C17.9935147,301.489766 62.4092562,165.493549 134.751284,0 C178.615657,54.3822447 247.974023,81.5733671 342.826382,81.5733671 C437.678741,81.5733671 519.40328,54.3822447 588,0 Z" id="Path-Copy" stroke="#000000" stroke-width="10" fill="#A38E71" stroke-linecap="round" stroke-linejoin="round"></path>
            <path d="M151.22834,182 C210.448918,182 258.456681,230.129389 258.456681,289.5 C258.456681,348.870611 210.448918,397 151.22834,397 C92.0077632,397 44,348.870611 44,289.5 C44,230.129389 92.0077632,182 151.22834,182 Z M385.754497,182 C444.975074,182 497,230.129389 497,289.5 C497,348.870611 444.975074,397 385.754497,397 C326.533919,397 278.526156,348.870611 278.526156,289.5 C278.526156,230.129389 326.533919,182 385.754497,182 Z" id="EYE-PATCHES" fill="#BAAA8D"></path>
            <path d="M588,0 L586.726794,2.41604934 C544.797748,81.8619115 511.45747,133.214927 486.705959,156.475096 C449.20367,191.717776 385.526572,191.717776 337.083951,227.311894 C304.78887,251.041306 280.470875,280.937341 264.129966,317 C255.121386,274.824938 236.400421,240.796682 207.967071,214.915232 C165.317046,176.093055 139.526791,172.672214 118.502553,150.781722 C104.486394,136.188061 110.108822,85.9274867 135.369837,-2.27373675e-13 L135.369837,0 C179.174347,54.1509983 248.438059,81.2264975 343.160973,81.2264975 C437.883886,81.2264975 519.496895,54.1509983 588,0 Z" id="HEAD-PATCH" stroke="#000000" stroke-width="10" fill="#7C6C57" stroke-linecap="round" stroke-linejoin="round"></path>
            <path d="M143,441.151986 L113.345798,469 L89.5347925,426.128017 L51.2775438,451.256035 L38.3829968,401 L0.16344995,418.44806 L0,418.456193" id="DETAILS-LEFT" stroke="#000000" stroke-width="10" stroke-linecap="round" stroke-linejoin="round"></path>
            <path d="M539,419.468144 L538.987243,419.464522 L497.449811,401 L484.070482,450.557561 L445.47917,426.18099 L421.381578,469 L392,441.186395" id="DETAILS-RIGHT" stroke="#000000" stroke-width="10" stroke-linecap="round" stroke-linejoin="round"></path>
            <circle id="Right-Eye-Lid-Copy" stroke="#000000" stroke-width="10" fill="#FFFFFF" cx="389" cy="298" r="71"></circle>
            <circle id="Left-Eye-Lid-Copy" stroke="#000000" stroke-width="10" fill="#FFFFFF" cx="153" cy="298" r="71"></circle>
            <g id="Group-2" transform="translate(178.000000, 286.000000)" fill="#000000">
                <circle id="Oval" cx="12" cy="12" r="12"></circle>
            </g>
            <g id="Group-2-Copy" transform="translate(415.000000, 286.000000)" fill="#000000">
                <circle id="Oval" cx="12" cy="12" r="12"></circle>
            </g>
            <circle id="Oval" stroke="#000000" stroke-width="10" fill="#B75B5B" cx="258.262194" cy="407.5" r="49.5"></circle>
            <path d="M266.762194,384.962272 C266.762194,402.236687 225.681447,389.007132 225.681447,408.038887 C225.681447,427.070643 266.762194,413.279538 266.762194,430.819924 C266.762194,448.360311 200.762194,448.389918 200.762194,408.038887 C200.762194,367.687857 266.762194,367.687857 266.762194,384.962272 Z" id="Path" stroke="#000000" stroke-width="10" fill="#B75B5B"></path>
            <path d="M257.762194,360.176816 C282.779379,368.89028 295.287972,385.360811 295.287972,409.588408 C295.287972,433.816006 282.779379,450.286536 257.762194,459 C292.428861,451.677396 309.762194,433.819941 309.762194,405.427634 C309.762194,377.035326 292.88656,361.226115 259.135293,358 L257.762194,360.176816 Z" id="Path-2" fill-opacity="0.25" fill="#000000"></path>
        </g>
        <path d="M294.465796,1470.77982 C291.970117,1469.11331 303.308962,1475.81049 302.040047,1470.77982 C301.227411,1467.55809 299.885775,1459.32127 289.548648,1455.77815 C288.255624,1455.33496 285.788855,1455.33496 282.148339,1455.77815 C283.208238,1468.45677 283.208238,1477.87041 282.148339,1484.01908 C279.222389,1500.99308 266.339851,1514.84315 268.606713,1528.52003 C270.709521,1541.20709 304.600854,1558.55548 308.054895,1560.70249 C321.819095,1569.25821 303.549364,1572.30618 297.820149,1590.94682 C294.000672,1603.37392 295.708162,1617.95305 302.942618,1634.68422 C302.449888,1615.0356 303.178752,1603.35386 305.129209,1599.639 C307.079667,1595.92414 316.650187,1587.33387 333.840771,1573.86817 L350.764061,1572.18842 L346.805448,1556.5457 L302.942618,1538.08675 L284.579764,1517.32914 C296.517741,1489.86695 299.813085,1474.35051 294.465796,1470.77982 Z" id="Path-1899" fill-opacity="0.2" fill="#000000"></path>
        <path d="M170.468181,1532.59183 C138.488106,1546.49683 122.498068,1566.98847 122.498068,1594.06677" id="Path-1901" stroke="#000000" stroke-width="10" stroke-linecap="round" stroke-linejoin="round"></path>
        <g id="Group-2" transform="translate(344.000000, 1242.000000)">
            <g id="Group" fill="#E5DF82" stroke="#000000" stroke-linecap="round" stroke-linejoin="round" stroke-width="10">
                <path d="M52.258064,23.1570774 C50.7550121,-5.52286248 2.43352253,-6.88503151 2.43352253,25.768271 C2.43352253,47.5371393 6.16927821,69.0584739 13.6407896,90.3322745 C15.797126,82.7823592 22.25373,72.5701071 33.0106016,59.6955183 C49.1929607,40.3273202 52.9966607,37.2503411 52.258064,23.1570774 Z" id="Beak" transform="translate(27.388919, 45.896299) rotate(3.000000) translate(-27.388919, -45.896299) "></path>
            </g>
            <path d="M15.3345617,80.7569681 C12.0414785,64.1058274 10.3949369,49.6854024 10.3949369,37.495693 C10.3949369,19.2111289 14.5837331,7.11758945 27.6049057,7.11758945 C36.2856874,7.11758945 44.4173855,10.5780771 52,17.4990525 C47.0239698,7.16635084 40.0897926,2 31.1974684,2 C17.8589822,2 5.34304691,8.21258295 4.1730358,18.6712499 C3.00302469,29.1299168 2.258635,47.1271902 4.1730358,59.0972699 C5.449303,67.077323 7.81480773,77.3782331 11.26955,90 L15.3345617,80.7569681 Z" id="Combined-Shape" fill="#FFFFFF" style="mix-blend-mode: soft-light;"></path>
            <path d="M43.1241905,11.0387163 L43.3611485,11.1920636 C44.9418119,12.2192089 46.722365,13.4316844 48.7028078,14.8294899 C49.5746957,15.5242217 50.4384291,16.2625684 51.2951691,17.0450151 C51.2041405,16.8558825 51.112458,16.6684758 51.0201219,16.482795 C51.3027319,16.6876827 51.5894352,16.8952394 51.8796692,17.1060697 L51.8796692,17.1060697 L53,21.6103166 L50.4764315,37.9643398 L35.1166214,55.2525624 L13,84.0007484 L14.5438863,80.4886209 C14.3588508,79.5524529 14.1790016,78.6233154 14.0043387,77.7012085 C15.8782523,71.6704214 17.5049633,66.70755 18.885864,62.8123084 C21.8376936,54.4857947 33.5108198,29.9941634 36.3673287,21.6103166 C38.15213,16.3719292 36.5913976,11.501793 31.6851318,6.99990798 C35.6156686,7.60291084 39.4288641,8.94917031 43.1241905,11.0387163 Z" id="Combined-Shape" fill-opacity="0.2" fill="#000000"></path>
        </g>
    </g>
</svg>