<?xml version="1.0" encoding="UTF-8"?>
<svg width="1700px" height="1700px" viewBox="0 0 1700 1700" version="1.1" xmlns="http://www.w3.org/2000/svg" xmlns:xlink="http://www.w3.org/1999/xlink">
    <!-- Generator: Sketch 58 (84663) - https://sketch.com -->
    <title>8_HATS/COUNT:120/BIG_MOHAWK</title>
    <desc>Created with Sketch.</desc>
    <g id="8_HATS/COUNT:120/BIG_MOHAWK" stroke="none" stroke-width="1" fill="none" fill-rule="evenodd">
        <path d="M1143.27281,527.495166 C1146.92854,524.291958 1149.40158,521.260896 1150.69193,518.401981 C1151.98229,515.543066 1152.89074,511.082086 1153.41729,505.019042 C1149.21871,504.238504 1145.83722,504.238504 1143.27281,505.019042 C1140.70841,505.799581 1136.70549,508.047202 1131.26406,511.761905 C1134.1563,498.609498 1136.93847,488.758581 1139.61058,482.209154 C1142.28269,475.659727 1146.88493,467.411238 1153.41729,457.463687 C1148.42901,458.133507 1143.82678,459.212757 1139.61058,460.701436 C1135.39439,462.190115 1128.72168,465.091887 1119.59246,469.406753 C1120.46753,451.748229 1122.32768,437.735269 1125.17289,427.367872 C1128.0181,417.000475 1134.05141,402.251225 1143.27281,383.12012 C1131.40577,388.510901 1121.94097,394.3595 1114.87842,400.665916 C1107.81587,406.972332 1098.6234,417.783515 1087.30099,433.099465 C1092.26315,403.982201 1096.58529,381.849232 1100.2674,366.700557 C1103.9495,351.551882 1110.39119,329.401094 1119.59246,300.248192 C1095.36478,307.744223 1077.11585,314.462774 1064.84568,320.403845 C1052.5755,326.344917 1034.74816,337.094059 1011.36366,352.651271 C1008.26534,320.45338 1004.2485,295.590288 999.313126,278.061995 C994.377753,260.533702 983.971114,234.170867 968.093209,198.973491 C955.643012,229.992651 945.8532,253.39878 938.723771,269.191879 C931.594343,284.984977 920.570878,307.684386 905.653377,337.290105 C897.34402,317.860035 884.384584,298.897501 866.77507,280.402505 C849.165555,261.907508 819.75485,236.369348 778.542955,203.788025 C794.206322,255.216471 804.889583,294.088411 810.592737,320.403845 C816.295891,346.71928 819.153119,370.325716 819.164419,391.223155 C804.097789,377.296553 788.79318,365.6638 773.25059,356.324897 C757.708,346.985994 733.724787,335.01231 701.300953,320.403845 C724.158749,354.056952 740.493389,380.810975 750.304874,400.665916 C760.116358,420.520856 769.529052,445.870243 778.542955,476.714075 C768.64686,468.19497 755.821595,459.952103 740.06716,451.985474 C724.312725,444.018845 700.429433,433.699102 668.417286,421.026245 C688.230213,447.686609 703.053827,468.080912 712.888127,482.209154 C722.722427,496.337396 735.194676,515.157126 750.304874,538.668342 L720.984434,538.668342 C739.80695,564.05354 757.229002,582.964897 773.25059,595.402412 C789.272177,607.839927 816.682888,623.732123 855.482722,643.078999 C923.632668,624.324281 971.576136,608.432086 999.313126,595.402412 C1027.05012,582.372739 1051.55871,564.229996 1072.83892,540.974183 C1088.29981,539.268783 1100.81286,537.352862 1110.37806,535.226422 C1119.94327,533.099982 1130.90819,530.522897 1143.27281,527.495166 Z" id="Path-2109" stroke="#000000" stroke-width="10" fill="#7C6C57" stroke-linejoin="round"></path>
        <path d="M855.482722,643.078999 C810.161694,618.532971 782.750983,602.640775 773.25059,595.402412 C763.750197,588.164049 759,574.099946 759,553.210103 L788.698135,575.310966 L754.410695,507.252628 L784.36304,542.528574 L773.25059,500.009797 L804.946709,507.252628 L777.378756,424.799142 L808.94725,464.971407 L801.110188,421.026245 L843.00285,448.718811 L835.806003,314.2746 L860.812795,375.253461 L860.812795,332.863203 L890.052939,388.779179 L898.972737,370.956595 L903.756005,394.13768 L948.643774,291.995633 L942.519202,355.227483 L974.299391,320.878134 L974.299391,355.227483 L988.045161,345.434728 L988.045161,398.144088 L1051,349.594219 L1038.07589,383.882498 L1085.95457,341.524938 L1041.9143,439.623444 L1062.05934,424.799142 L1056.71613,478.727195 L1099.99749,448.718811 L1090.02999,486.50943 L1113.47206,486.50943 L1099.99749,507.252628 L1113.47206,512.4529 L1099.99749,536.254493 L1072.83892,540.974183 C1043.89896,569.711058 1012.85748,590.692721 979.71449,603.919172 C946.571497,617.145622 905.160907,630.198898 855.482722,643.078999 Z" id="Path-2110" fill-opacity="0.2" fill="#000000"></path>
    </g>
</svg>