<?xml version="1.0" encoding="UTF-8"?>
<svg width="1700px" height="1700px" viewBox="0 0 1700 1700" version="1.1" xmlns="http://www.w3.org/2000/svg" xmlns:xlink="http://www.w3.org/1999/xlink">
    <!-- Generator: Sketch 58 (84663) - https://sketch.com -->
    <title>8_HATS/COUNT:122/SMALL_MOHAWK</title>
    <desc>Created with Sketch.</desc>
    <g id="8_HATS/COUNT:122/SMALL_MOHAWK" stroke="none" stroke-width="1" fill="none" fill-rule="evenodd">
        <path d="M1108.87768,534.181843 C1061.62589,495.820629 1002,470.736968 930,458.93086 C858,447.124752 801,447.124752 759,458.93086 L807.214759,492.129061 L701.756059,534.181843 L774.472565,555.847416 L721.234429,608.149434 L793.111319,608.149434 L774.472565,661.739704 L850,635.029349 L830.451875,688.327807 L924.72991,640.977106 L930,697.235672 C980,629.639333 1013.33333,588.446101 1030,573.655975 C1046.66667,558.865849 1072.95923,545.707806 1108.87768,534.181843 Z" id="Path-2034" stroke="#000000" stroke-width="10" fill="#7C6C57" stroke-linejoin="round"></path>
        <path d="M1108.87768,534.181843 C1061.62589,495.820629 1002,470.736968 930,458.93086 C858,447.124752 801,447.124752 759,458.93086 L807.214759,492.129061 L701.756059,534.181843 L774.472565,555.847416 L721.234429,608.149434 L793.111319,608.149434 L774.472565,661.739704 L850,635.029349 L830.451875,688.327807 L924.72991,640.977106 L930,697.235672 C980,629.639333 1013.33333,588.446101 1030,573.655975 C1046.66667,558.865849 1072.95923,545.707806 1108.87768,534.181843 Z" id="Path-2034" stroke="#000000" stroke-width="10" stroke-linejoin="round"></path>
        <path d="M1108.87768,534.181843 C1060.80305,499.422966 1014.85759,477.751203 971.041301,469.166554 C927.225014,460.581906 872.022391,455.338024 805.433432,453.434908 L855.674684,467.916374 L817.831244,475.23519 L847.620727,493.258284 L798.903785,511.813652 L817.831244,518.618315 L781.556012,530.96739 L835.691727,539.246171 L796.395313,576.281831 L868.535509,547.845517 L826.002164,595.293641 L889.134072,576.281831 L862.376907,632.497647 L902.950226,604.468847 L889.134072,632.497647 L956.020935,598.457988 L943.922005,641.029394 L996.81803,573.655975 L980.126277,632.497647 C1007.66167,596.245693 1028.01093,573.074017 1041.17406,562.982617 C1054.3372,552.891217 1076.90507,543.290959 1108.87768,534.181843 Z" id="Path-2035" fill-opacity="0.2" fill="#000000"></path>
    </g>
</svg>