<?xml version="1.0" encoding="UTF-8"?>
<svg width="1700px" height="1700px" viewBox="0 0 1700 1700" version="1.1" xmlns="http://www.w3.org/2000/svg" xmlns:xlink="http://www.w3.org/1999/xlink">
    <!-- Generator: Sketch 58 (84663) - https://sketch.com -->
    <title>4_EYES/COUNT:408/GLAMOROUS</title>
    <desc>Created with Sketch.</desc>
    <defs>
        <radialGradient cx="50%" cy="32.9433857%" fx="50%" fy="32.9433857%" r="117.114569%" gradientTransform="translate(0.500000,0.329434),scale(0.450893,1.000000),rotate(18.762514),scale(1.000000,0.645943),translate(-0.500000,-0.329434)" id="radialGradient-1">
            <stop stop-color="#FFFFFF" offset="0%"></stop>
            <stop stop-color="#FFFFFF" offset="53.9846884%"></stop>
            <stop stop-color="#C7C7C7" offset="100%"></stop>
        </radialGradient>
        <linearGradient x1="50%" y1="0%" x2="50%" y2="99.8879098%" id="linearGradient-2">
            <stop stop-color="#CE6D46" offset="0%"></stop>
            <stop stop-color="#FFCC34" offset="100%"></stop>
        </linearGradient>
    </defs>
    <g id="4_EYES/COUNT:408/GLAMOROUS" stroke="none" stroke-width="1" fill="none" fill-rule="evenodd">
        <circle id="Right-Eye-Lid" cx="1051" cy="924" r="121"></circle>
        <circle id="Left-Eye-Lid" cx="638" cy="924" r="121"></circle>
        <g id="Group" transform="translate(471.341846, 844.000000)">
            <path d="M273.658154,113.752631 C223.348809,138.861403 177.539446,147.230994 136.230064,138.861403 C94.920682,130.491813 66.0633786,105.09631 49.6581541,62.6748963 C80.0770201,44.8307386 117.410353,38.0044178 161.658154,42.195934 C205.905955,46.3874502 243.239288,70.2396826 273.658154,113.752631 Z" id="Path-1002" stroke="#000000" stroke-width="10" fill="url(#radialGradient-1)"></path>
            <circle id="Oval" fill="url(#linearGradient-2)" cx="194.658154" cy="76" r="52"></circle>
            <path d="M193.942271,47 C202.616871,47 210.404597,50.8265468 215.733988,56.8960112 L223.030456,52.8905583 L243.658154,63.4745947 L221.942817,68.3448889 C222.204044,69.2789559 222.420485,70.2319386 222.589659,71.2013341 L243.658154,68.9850219 L243.658154,75.1884471 L223.009437,75.1885792 C223.023408,75.5617636 223.030456,75.9367336 223.030456,76.3133625 C223.030456,77.2189421 222.989707,78.1149307 222.909957,78.9995677 L243.658154,82.0966875 L241.979665,89.267157 L222.076366,83.7876858 C218.797164,96.3566009 207.443978,105.626725 193.942271,105.626725 C188.391493,105.626725 183.203851,104.059916 178.79108,101.341221 L167.321841,119 L162.196261,114.787151 L175.370318,98.8752746 C174.388931,98.0539738 173.461993,97.1688834 172.595767,96.2263151 L157.379368,110.345574 L153.644704,105.626725 L170.143697,93.1728481 C167.927769,90.0020988 166.320019,86.3686313 165.491381,82.4447039 C161.704757,83.4682152 158.616713,84.4455469 156.226525,85.3770914 C152.726736,86.7410886 149.775674,88.8227624 147.373337,91.6221127 L147.373337,91.6221127 L144.658154,80.8266753 L144.658154,70.3590858 L165.454635,70.3587138 C168.184932,57.0245377 179.901916,47 193.942271,47 Z" id="Oval-3" fill="#000000"></path>
            <circle id="Oval-2" stroke="#000000" stroke-width="5" cx="194.658154" cy="76" r="49.5"></circle>
            <path d="M226.658154,58.1543676 C226.658154,65.2100898 198.69001,58.46123 182.132775,64.1648425 C165.575541,69.8684549 158.867057,84.0003029 140.061122,70.0025079 C127.523832,60.6706446 127.523832,53.5502494 140.061122,48.6413223 L199.160448,43 C217.492252,48.3990969 226.658154,53.4505528 226.658154,58.1543676 Z" id="Path" fill="#FFFFFF"></path>
            <path d="M72.6581541,55.570204 C84.7667346,12.727409 115.158891,-5.34259929 163.834624,1.36017922 C212.510357,8.06295773 246.451534,40.2762313 265.658154,98 L211.840901,60.4120825 L158.18102,42.8854885 L103.854331,48.9926624 L72.6581541,55.570204 Z" id="Path-1005" fill="#A38E71"></path>
            <path d="M273.658154,113.752631 C223.348809,138.861403 177.539446,147.230994 136.230064,138.861403 C94.920682,130.491813 66.0633786,105.09631 49.6581541,62.6748963 C80.0770201,44.8307386 117.410353,38.0044178 161.658154,42.195934 C205.905955,46.3874502 243.239288,70.2396826 273.658154,113.752631 Z" id="Path-1002" stroke="#000000" stroke-width="10"></path>
            <path d="M273.658154,114 C228.899833,71.3079901 189.390726,49.9619851 155.130835,49.9619851 C103.740998,49.9619851 58.0163279,68.2585608 44.8939643,68.2585608 C31.7716007,68.2585608 16.2439178,64.5571425 10.5321966,59.3575933 C6.72438254,55.8912272 3.09970169,50.9035985 -0.34184589,44.3947071 C9.170688,49.8291144 19.0881232,52.546318 29.4104596,52.546318 C39.7327961,52.546318 48.3074824,51.6848737 55.1345186,49.9619851 C46.6327019,46.176352 41.4641508,42.8310244 39.6288654,39.9260024 C37.7935799,37.0209804 36.7997604,33.712313 36.6474067,30 C39.5098712,36.6163562 45.6722418,40.669563 55.1345186,42.1596207 C64.5967954,43.6496783 74.8511353,44.3947071 85.8975382,44.3947071 L146.217324,39.9260024 L199.543072,49.9619851 L212.18883,54.1580442 L234.867202,72 L273.658154,114 Z" id="Path-1004" fill="#000000"></path>
        </g>
        <g id="Group-Copy" transform="translate(1080.000000, 915.000000) scale(-1, 1) translate(-1080.000000, -915.000000) translate(943.000000, 844.000000)">
            <path d="M274,113.752631 C223.690655,138.861403 177.881292,147.230994 136.57191,138.861403 C95.2625278,130.491813 66.4052245,105.09631 50,62.6748963 C80.4188659,44.8307386 117.752199,38.0044178 162,42.195934 C206.247801,46.3874502 243.581134,70.2396826 274,113.752631 Z" id="Path-1002" stroke="#000000" stroke-width="10" fill="url(#radialGradient-1)"></path>
            <circle id="Oval" fill="url(#linearGradient-2)" cx="134" cy="68" r="52"></circle>
            <path d="M134.284117,39 C142.958716,39 150.746443,42.8265468 156.075834,48.8960112 L163.372302,44.8905583 L184,55.4745947 L162.284663,60.3448889 C162.545889,61.2789559 162.762331,62.2319386 162.931505,63.2013341 L184,60.9850219 L182.321511,81.267157 L162.418212,75.7876858 C159.13901,88.3566009 147.785824,97.626725 134.284117,97.626725 C128.733338,97.626725 123.545696,96.0599162 119.132926,93.3412211 L107.663686,111 L102.538107,106.787151 L115.712164,90.8752746 C114.730777,90.0539738 113.803839,89.1688834 112.937613,88.2263151 L97.721214,102.345574 L93.9865501,97.626725 L110.485543,85.1728481 C108.458349,82.2721562 106.940145,78.9842103 106.061806,75.4408964 L87.715183,83.6221127 L85,72.8266753 L89.70623,44.8905583 L109.406673,53.1140693 C114.508276,44.6523868 123.741174,39 134.284117,39 Z" id="Oval-3" fill="#000000" transform="translate(134.500000, 75.000000) scale(-1, 1) translate(-134.500000, -75.000000) "></path>
            <circle id="Oval-2" stroke="#000000" stroke-width="5" cx="134" cy="68" r="49.5"></circle>
            <path d="M197,54.1543676 C197,61.2100898 169.031856,54.46123 152.474621,60.1648425 C135.917387,65.8684549 129.208903,80.0003029 110.402968,66.0025079 C97.8656774,56.6706446 97.8656774,49.5502494 110.402968,44.6413223 L169.502294,39 C187.834098,44.3990969 197,49.4505528 197,54.1543676 Z" id="Path" fill="#FFFFFF" transform="translate(149.000000, 55.500000) scale(-1, 1) translate(-149.000000, -55.500000) "></path>
            <path d="M59,54.5662074 C80.0995351,12.4263301 115.047092,-5.30600618 163.842672,1.36919848 C212.638251,8.04440314 243.024027,37.921337 255,91 L211.967146,60.1781743 L158.175147,42.7236812 L103.714698,48.8057315 L59,54.5662074 Z" id="Path-1005" fill="#A38E71"></path>
            <path d="M274,113.752631 C223.690655,138.861403 177.881292,147.230994 136.57191,138.861403 C95.2625278,130.491813 66.4052245,105.09631 50,62.6748963 C80.4188659,44.8307386 117.752199,38.0044178 162,42.195934 C206.247801,46.3874502 243.581134,70.2396826 274,113.752631 Z" id="Path-1002" stroke="#000000" stroke-width="10"></path>
            <path d="M274,114 C229.241678,71.3079901 189.732572,49.9619851 155.472681,49.9619851 C104.082844,49.9619851 58.3581738,68.2585608 45.2358102,68.2585608 C32.1134466,68.2585608 16.5857637,64.5571425 10.8740425,59.3575933 C7.06622843,55.8912272 3.44154759,50.9035985 -3.63797881e-12,44.3947071 C9.51253389,49.8291144 19.4299691,52.546318 29.7523055,52.546318 C40.074642,52.546318 48.6493283,51.6848737 55.4763645,49.9619851 C46.9745478,46.176352 41.8059967,42.8310244 39.9707113,39.9260024 C38.1354258,37.0209804 37.1416063,33.712313 36.9892526,30 C39.8517171,36.6163562 46.0140877,40.669563 55.4763645,42.1596207 C64.9386413,43.6496783 75.1929812,44.3947071 86.2393841,44.3947071 L146.55917,39.9260024 L199.884918,49.9619851 L212.530675,54.1580442 L235.209048,72 L274,114 Z" id="Path-1004" fill="#000000"></path>
        </g>
        <path d="M748.341846,958 C721.497799,903.892512 688.717184,873.892512 650,868 C611.282816,862.107488 579.396765,866.363669 554.341846,880.768543 L576.476531,885.16071" id="Path-1000" stroke="#000000" stroke-width="4"></path>
        <path d="M1137,959 C1107.86147,903.943476 1073.93361,873.468958 1035.21642,867.576446 C996.49924,861.683935 965.760432,866.414633 943,881.768543 L965.134685,886.16071" id="Path-1000-Copy" stroke="#000000" stroke-width="4" transform="translate(1040.000000, 912.062545) scale(-1, 1) translate(-1040.000000, -912.062545) "></path>
    </g>
</svg>