<?xml version="1.0" encoding="UTF-8"?>
<svg width="1700px" height="1700px" viewBox="0 0 1700 1700" version="1.1" xmlns="http://www.w3.org/2000/svg" xmlns:xlink="http://www.w3.org/1999/xlink">
    <!-- Generator: Sketch 58 (84663) - https://sketch.com -->
    <title>4_EYES/COUNT:344/SLEEPY</title>
    <desc>Created with Sketch.</desc>
    <g id="4_EYES/COUNT:344/SLEEPY" stroke="none" stroke-width="1" fill="none" fill-rule="evenodd">
        <path d="M533.348907,975 L746.101391,975 C720.96917,1033.50165 685.510422,1062.75247 639.725149,1062.75247 C593.939876,1062.75247 558.481129,1033.50165 533.348907,975 Z" id="Path-1320" fill="#836D92"></path>
        <path d="M945,976 L1157.75248,976 C1132.62026,1034.50165 1097.16152,1063.75247 1051.37624,1063.75247 C1005.59097,1063.75247 970.132222,1034.50165 945,976 Z" id="Path-1320-Copy" fill="#836D92"></path>
        <path d="M740.862576,976.556477 C725.269419,1029.12673 694.412769,1057.71089 648.292624,1062.30895" id="Path-983" stroke="#000000" stroke-width="10" stroke-linecap="round"></path>
        <path d="M1039.56995,977 C1023.9768,1029.57025 993.120145,1058.15441 947,1062.75247" id="Path-983-Copy" stroke="#000000" stroke-width="10" stroke-linecap="round" transform="translate(993.284976, 1019.876237) scale(-1, 1) translate(-993.284976, -1019.876237) "></path>
        <path d="M638,1040 C702.065031,1040 754,988.065031 754,924 C754,871.766947 719.17284,826.383872 669.655732,812.370652 C669.454133,812.3136 669.275076,812.288122 669.096903,812.287509 C667.377523,812.281597 665.999767,813.23034 656.496286,821.020818 C645.459764,830.068007 635.823454,836.604622 621.982353,843.401251 C617.335846,845.682904 612.416735,847.863384 607.191367,849.941417 C597.57374,853.76617 588.548538,856.1004 579.567603,857.324071 C573.01612,858.216724 568.358799,858.428139 559.169514,858.51177 C544.859773,858.642001 541.461645,859.664103 537.594448,866.116486 C527.085011,883.651385 522,902.38266 522,924 C522,988.065031 573.934969,1040 638,1040 Z" id="Left-Eye" stroke="#000000" stroke-width="10" fill="#FFFFFF"></path>
        <ellipse id="Left-Pupil-Copy" stroke="#000000" stroke-width="10" fill="#E48F2F" cx="694.460168" cy="975" rx="23.5" ry="21"></ellipse>
        <path d="M525.496209,857.395548 C555.042551,860.560201 581.179768,858.095019 603.907861,850 C626.635954,841.904981 650.826017,826.238315 676.478052,803" id="Path-913" stroke="#000000" stroke-width="10" stroke-linecap="round"></path>
        <path d="M531.915284,971.000722 L744.084716,971.000722 C750.589687,956.342518 754,940.417839 754,924 C754,871.766947 719.17284,826.383872 669.655732,812.370652 C669.454133,812.3136 669.275076,812.288122 669.096903,812.287509 C667.377523,812.281597 665.999767,813.23034 656.496286,821.020818 C645.459764,830.068007 635.823454,836.604622 621.982353,843.401251 C617.335846,845.682904 612.416735,847.863384 607.191367,849.941417 C597.57374,853.76617 588.548538,856.1004 579.567603,857.324071 C573.01612,858.216724 568.358799,858.428139 559.169514,858.51177 C544.859773,858.642001 541.461645,859.664103 537.594448,866.116486 C527.085011,883.651385 522,902.38266 522,924 C522,940.417839 525.410313,956.342518 531.915284,971.000722 Z" id="Path" stroke="#000000" stroke-width="10" fill="#A38E71"></path>
        <path d="M1051,1040 C1115.06503,1040 1167,988.065031 1167,924 C1167,871.766947 1132.17284,826.383872 1082.65573,812.370652 C1082.45413,812.3136 1082.27508,812.288122 1082.0969,812.287509 C1080.37752,812.281597 1078.99977,813.23034 1069.49629,821.020818 C1058.45976,830.068007 1048.82345,836.604622 1034.98235,843.401251 C1030.33585,845.682904 1025.41673,847.863384 1020.19137,849.941417 C1010.57374,853.76617 1001.54854,856.1004 992.567603,857.324071 C986.01612,858.216724 981.358799,858.428139 972.169514,858.51177 C957.859773,858.642001 954.461645,859.664103 950.594448,866.116486 C940.085011,883.651385 935,902.38266 935,924 C935,988.065031 986.934969,1040 1051,1040 Z" id="Left-Eye" stroke="#000000" stroke-width="10" fill="#FFFFFF" transform="translate(1051.000000, 926.143749) scale(-1, 1) translate(-1051.000000, -926.143749) "></path>
        <ellipse id="Left-Pupil-Copy" stroke="#000000" stroke-width="10" fill="#E48F2F" transform="translate(1109.500000, 975.000000) scale(-1, 1) translate(-1109.500000, -975.000000) " cx="1109.5" cy="975" rx="23.5" ry="21"></ellipse>
        <path d="M1012.52195,857.395548 C1042.06829,860.560201 1068.20551,858.095019 1090.9336,850 C1113.66169,841.904981 1137.85176,826.238315 1163.50379,803" id="Path-913" stroke="#000000" stroke-width="10" stroke-linecap="round" transform="translate(1088.012870, 830.864869) scale(-1, 1) translate(-1088.012870, -830.864869) "></path>
        <path d="M944.915284,970.713224 L1157.08472,970.713224 C1163.58969,956.05502 1167,940.130341 1167,923.712502 C1167,871.47945 1132.17284,826.096374 1082.65573,812.083154 C1082.45413,812.026102 1082.27508,812.000624 1082.0969,812.000011 C1080.37752,811.9941 1078.99977,812.942842 1069.49629,820.73332 C1058.45976,829.780509 1048.82345,836.317124 1034.98235,843.113754 C1030.33585,845.395406 1025.41673,847.575887 1020.19137,849.653919 C1010.57374,853.478672 1001.54854,855.812902 992.567603,857.036573 C986.01612,857.929226 981.358799,858.140642 972.169514,858.224272 C957.859773,858.354503 954.461645,859.376605 950.594448,865.828988 C940.085011,883.363888 935,902.095162 935,923.712502 C935,940.130341 938.410313,956.05502 944.915284,970.713224 Z" id="Path" stroke="#000000" stroke-width="10" fill="#A38E71" transform="translate(1051.000000, 891.356612) scale(-1, 1) translate(-1051.000000, -891.356612) "></path>
    </g>
</svg>