<?xml version="1.0" encoding="UTF-8"?>
<svg width="1700px" height="1700px" viewBox="0 0 1700 1700" version="1.1" xmlns="http://www.w3.org/2000/svg" xmlns:xlink="http://www.w3.org/1999/xlink">
    <!-- Generator: Sketch 58 (84663) - https://sketch.com -->
    <title>4_EYES/COUNT:328/CLOSED</title>
    <desc>Created with Sketch.</desc>
    <g id="4_EYES/COUNT:328/CLOSED" stroke="none" stroke-width="1" fill="none" fill-rule="evenodd">
        <path d="M638,1045 C672.671178,1045 703.936465,1030.41765 725.997242,1007.05156 C746.457188,985.381023 759,956.155277 759,924 C759,885.849714 741.344256,851.823147 713.758011,829.645543 C693.022445,812.975454 666.676168,803 638,803 C606.376966,803 577.587284,815.131025 556.030719,834.993311 C532.033501,857.104422 517,888.79658 517,924 C517,962.293827 534.788854,996.432845 562.55379,1018.60428 C583.24137,1035.12416 609.467372,1045 638,1045 Z" id="Oval" fill="#A38E71"></path>
        <path d="M1051,1045 C1085.67118,1045 1116.93646,1030.41765 1138.99724,1007.05156 C1159.45719,985.381023 1172,956.155277 1172,924 C1172,885.849714 1154.34426,851.823147 1126.75801,829.645543 C1106.02244,812.975454 1079.67617,803 1051,803 C1019.37697,803 990.587284,815.131025 969.030719,834.993311 C945.033501,857.104422 930,888.79658 930,924 C930,962.293827 947.788854,996.432845 975.55379,1018.60428 C996.24137,1035.12416 1022.46737,1045 1051,1045 Z" id="Oval-Copy-4" fill="#A38E71"></path>
        <path d="M556.030719,834.993311 C532.033501,857.104422 517,888.79658 517,924 C517,962.293827 534.788854,996.432845 562.55379,1018.60428 M725.997242,1007.05156 C746.457188,985.381023 759,956.155277 759,924 C759,885.849714 741.344256,851.823147 713.758011,829.645543" id="Shape" stroke="#000000" stroke-width="10" fill="#A38E71" stroke-linecap="round"></path>
        <path d="M969.030719,834.993311 C945.033501,857.104422 930,888.79658 930,924 C930,962.293827 947.788854,996.432845 975.55379,1018.60428 M1138.99724,1007.05156 C1159.45719,985.381023 1172,956.155277 1172,924 C1172,885.849714 1154.34426,851.823147 1126.75801,829.645543" id="Shape-Copy" stroke="#000000" stroke-width="10" fill="#A38E71" stroke-linecap="round"></path>
        <path d="M521.798479,924 C564.177329,931.007908 602.91117,934.511861 638,934.511861 C673.08883,934.511861 711.878087,931.007908 754.36777,924" id="Path-1321" stroke="#000000" stroke-width="10"></path>
        <path d="M934.798479,924 C977.177329,931.007908 1015.91117,934.511861 1051,934.511861 C1086.08883,934.511861 1124.87809,931.007908 1167.36777,924" id="Path-1321-Copy" stroke="#000000" stroke-width="10"></path>
    </g>
</svg>