<?xml version="1.0" encoding="UTF-8"?>
<svg width="1700px" height="1700px" viewBox="0 0 1700 1700" version="1.1" xmlns="http://www.w3.org/2000/svg" xmlns:xlink="http://www.w3.org/1999/xlink">
    <!-- Generator: Sketch 58 (84663) - https://sketch.com -->
    <title>1_EARS/BASE</title>
    <desc>Created with Sketch.</desc>
    <defs>
        <polygon id="path-1" points="1699 723 1699 0 -1 0 -1 723"></polygon>
    </defs>
    <g id="1_EARS/BASE" stroke="none" stroke-width="1" fill="none" fill-rule="evenodd">
        <mask id="mask-2" fill="white">
            <use xlink:href="#path-1"></use>
        </mask>
        <g id="Path-79"></g>
        <path d="M1396.62774,405 C1345.78456,732.514654 1316.99841,976.23777 1310.2693,1136.16935 L1310.24714,1136.16304 L1238.11632,1104 L1214.88277,1190.32347 L1147.86796,1147.86234 L1106.02187,1222.44805 L1055,1174 C986.659145,1239.45564 688.207108,1243.56281 620.468858,1174 L568.563639,1222.44805 L526.886058,1147.86234 L459.922501,1191.57832 L437.352537,1104.14636 L370.454971,1134.50128 L370.168877,1134.51543 C370.983196,1128.41051 371.858398,1122.33904 372.794482,1116.30102 C401.579766,930.627313 479.115363,693.526973 605.401274,405 C681.974359,499.811819 803.051756,547.217729 968.633464,547.217729 C1134.21517,547.217729 1276.87993,499.811819 1396.62774,405 Z" id="Path-Copy" stroke="#000000" stroke-width="10" fill="#A38E71" stroke-linecap="round" stroke-linejoin="round" mask="url(#mask-2)"></path>
        <path d="M635,723.5 C531.998894,723.5 448.5,806.998894 448.5,910 C448.5,1013.00111 531.998894,1096.5 635,1096.5 C738.001106,1096.5 821.5,1013.00111 821.5,910 C821.5,806.998894 738.001106,723.5 635,723.5 Z M1044,723.5 C940.998894,723.5 857.5,806.998894 857.5,910 C857.5,1013.00111 940.998894,1096.5 1044,1096.5 C1148.34288,1096.5 1237.5057,1011.72477 1237.5057,910 C1237.5057,808.275229 1148.34288,723.5 1044,723.5 Z" id="EYE-PATCHES" stroke="#979797" fill="#FFFFFF" opacity="0.5" style="mix-blend-mode: overlay;" mask="url(#mask-2)"></path>
        <path d="M1396.62774,405 L1394.40209,409.230209 C1321.10744,548.330262 1262.8265,638.243153 1219.55928,678.968883 C1154.00288,740.674534 1042.69124,740.674534 958.010441,802.99551 C901.556575,844.542827 859.047165,896.887153 830.482212,960.028487 C814.734638,886.185078 782.009195,826.605736 732.305881,781.29046 C657.75091,713.317546 612.667896,707.328069 575.916184,669.000477 C551.415042,643.448749 561.243405,555.44859 605.401274,405 L605.401274,405 C681.974359,499.811819 803.051756,547.217729 968.633464,547.217729 C1134.21517,547.217729 1276.87993,499.811819 1396.62774,405 Z" id="HEAD-PATCH" stroke="#000000" stroke-width="10" fill="#7C6C57" stroke-linecap="round" stroke-linejoin="round" mask="url(#mask-2)"></path>
    </g>
</svg>