<?xml version="1.0" encoding="UTF-8"?>
<svg width="1700px" height="1700px" viewBox="0 0 1700 1700" version="1.1" xmlns="http://www.w3.org/2000/svg" xmlns:xlink="http://www.w3.org/1999/xlink">
    <!-- Generator: Sketch 58 (84663) - https://sketch.com -->
    <title>5_MOUTH/COUNT:244/MUSTACHE</title>
    <desc>Created with Sketch.</desc>
    <g id="5_MOUTH/COUNT:244/MUSTACHE" stroke="none" stroke-width="1" fill="none" fill-rule="evenodd" stroke-linejoin="round">
        <path d="M821.668536,1039 C751.645483,1039 710.342839,1061.0849 674.630914,1079.21536 C633.188052,1100.25533 603,1118.45238 603,1129.81316 C603,1150.9637 631.991155,1162.45153 662.811941,1162.45153 C683.359131,1162.45153 702.722806,1152.77186 720.902965,1133.4125 C739.249378,1152.77186 758.889731,1162.45153 779.824022,1162.45153 C800.758314,1162.45153 819.951295,1152.77186 837.402965,1133.4125 C855.159781,1152.77186 872.393699,1162.45153 889.104717,1162.45153 C905.815735,1162.45153 922.988977,1152.77186 940.624442,1133.4125 C956.019298,1152.77186 974.543221,1162.45153 996.196211,1162.45153 C1028.6757,1162.45153 1054.66854,1144.25838 1054.66854,1129.81316 C1054.66854,1121.58379 1017.93455,1102.0697 967.13829,1079.21536 C928.770639,1061.95292 886.766405,1039 821.668536,1039 Z" id="Path-2267" stroke="#000000" stroke-width="10" fill="#7C6C57"></path>
        <path d="M791.0781,1162.45153 C796.742376,1179.86771 814.050626,1192.66534 843.00285,1200.84442" id="Path-2268" stroke="#000000" stroke-width="10" stroke-linecap="round"></path>
        <path d="M710.921852,1111.08509 C712.579543,1120.75333 715.906581,1128.1958 720.902965,1133.4125" id="Path-2301" stroke="#000000" stroke-width="10" stroke-linecap="round"></path>
        <path d="M827,1111 C828.657691,1120.66824 831.984729,1128.11072 836.981113,1133.32742" id="Path-2301-Copy" stroke="#000000" stroke-width="10" stroke-linecap="round"></path>
        <path d="M935,1116 C936.657691,1125.66824 939.984729,1133.11072 944.981113,1138.32742" id="Path-2301-Copy-2" stroke="#000000" stroke-width="10" stroke-linecap="round"></path>
    </g>
</svg>