<?xml version="1.0" encoding="UTF-8"?>
<svg width="1700px" height="1700px" viewBox="0 0 1700 1700" version="1.1" xmlns="http://www.w3.org/2000/svg" xmlns:xlink="http://www.w3.org/1999/xlink">
    <!-- Generator: Sketch 58 (84663) - https://sketch.com -->
    <title>5_MOUTH/COUNT:244/STUBBLE</title>
    <desc>Created with Sketch.</desc>
    <g id="5_MOUTH/COUNT:244/STUBBLE" stroke="none" stroke-width="1" fill="none" fill-rule="evenodd">
        <path d="M620.468858,1174 C652.550626,1115.28641 722.114935,1085.92961 829.161785,1085.92961 C936.208636,1085.92961 1012.55184,1116.28641 1058.19138,1177 C989.121096,1243.5505 915.635444,1278.14613 837.734429,1280.78689 C759.833414,1283.42764 687.411557,1247.83201 620.468858,1174 Z" id="Path-2423" fill-opacity="0.1" fill="#000000"></path>
        <g id="Group" transform="translate(748.000000, 1097.000000)" stroke="#000000" stroke-linecap="round" stroke-linejoin="round" stroke-width="10">
            <path d="M22.8771138,0 C6.32276397,24.4150351 -1.24728497,41.9385772 0.166966959,52.5706263 C33.1621114,38.8751872 61.7731224,38.8751872 86,52.5706263" id="Path-43"></path>
            <path d="M14,48.2092524 C24.4689878,52.1829238 34.1151734,62.4830041 42.9385569,79.1094933" id="Path-44"></path>
        </g>
        <path d="M652.579632,1153 L647,1168.45012" id="Path-2424" stroke="#000000" stroke-width="6" stroke-linecap="round" stroke-linejoin="round"></path>
        <path d="M679.579632,1129 L674,1144.45012" id="Path-2424-Copy" stroke="#000000" stroke-width="6" stroke-linecap="round" stroke-linejoin="round"></path>
        <path d="M698.579632,1153 L693,1168.45012" id="Path-2424-Copy-2" stroke="#000000" stroke-width="6" stroke-linecap="round" stroke-linejoin="round"></path>
        <path d="M673.579632,1176 L668,1191.45012" id="Path-2424-Copy-3" stroke="#000000" stroke-width="6" stroke-linecap="round" stroke-linejoin="round"></path>
        <path d="M709.579632,1199 L704,1214.45012" id="Path-2424-Copy-4" stroke="#000000" stroke-width="6" stroke-linecap="round" stroke-linejoin="round"></path>
        <path d="M726.579632,1148 L721,1163.45012" id="Path-2424-Copy-5" stroke="#000000" stroke-width="6" stroke-linecap="round" stroke-linejoin="round"></path>
        <path d="M721.579632,1110 L716,1125.45012" id="Path-2424-Copy-6" stroke="#000000" stroke-width="6" stroke-linecap="round" stroke-linejoin="round"></path>
        <path d="M753.579632,1177 L748,1192.45012" id="Path-2424-Copy-7" stroke="#000000" stroke-width="6" stroke-linecap="round" stroke-linejoin="round"></path>
        <path d="M766.579632,1225 L761,1240.45012" id="Path-2424-Copy-8" stroke="#000000" stroke-width="6" stroke-linecap="round" stroke-linejoin="round"></path>
        <path d="M802.579632,1203 L797,1218.45012" id="Path-2424-Copy-10" stroke="#000000" stroke-width="6" stroke-linecap="round" stroke-linejoin="round"></path>
        <path d="M796.579632,1240 L791,1255.45012" id="Path-2424-Copy-11" stroke="#000000" stroke-width="6" stroke-linecap="round" stroke-linejoin="round"></path>
        <path d="M796.579632,1108 L791,1123.45012" id="Path-2424-Copy-12" stroke="#000000" stroke-width="6" stroke-linecap="round" stroke-linejoin="round"></path>
        <path d="M833.579632,1097 L828,1112.45012" id="Path-2424-Copy-13" stroke="#000000" stroke-width="6" stroke-linecap="round" stroke-linejoin="round"></path>
        <path d="M860.579632,1125 L855,1140.45012" id="Path-2424-Copy-14" stroke="#000000" stroke-width="6" stroke-linecap="round" stroke-linejoin="round"></path>
        <path d="M839.579632,1185 L834,1200.45012" id="Path-2424-Copy-15" stroke="#000000" stroke-width="6" stroke-linecap="round" stroke-linejoin="round"></path>
        <path d="M835.579632,1233 L830,1248.45012" id="Path-2424-Copy-16" stroke="#000000" stroke-width="6" stroke-linecap="round" stroke-linejoin="round"></path>
        <path d="M860.579632,1241 L855,1256.45012" id="Path-2424-Copy-17" stroke="#000000" stroke-width="6" stroke-linecap="round" stroke-linejoin="round"></path>
        <path d="M892.579632,1200 L887,1215.45012" id="Path-2424-Copy-18" stroke="#000000" stroke-width="6" stroke-linecap="round" stroke-linejoin="round"></path>
        <path d="M869.579632,1174 L864,1189.45012" id="Path-2424-Copy-19" stroke="#000000" stroke-width="6" stroke-linecap="round" stroke-linejoin="round"></path>
        <path d="M913.579632,1140 L908,1155.45012" id="Path-2424-Copy-20" stroke="#000000" stroke-width="6" stroke-linecap="round" stroke-linejoin="round"></path>
        <path d="M950.579632,1153 L945,1168.45012" id="Path-2424-Copy-21" stroke="#000000" stroke-width="6" stroke-linecap="round" stroke-linejoin="round"></path>
        <path d="M985.579632,1138 L980,1153.45012" id="Path-2424-Copy-22" stroke="#000000" stroke-width="6" stroke-linecap="round" stroke-linejoin="round"></path>
        <path d="M927.579632,1200 L922,1215.45012" id="Path-2424-Copy-23" stroke="#000000" stroke-width="6" stroke-linecap="round" stroke-linejoin="round"></path>
        <path d="M907.579632,1244 L902,1259.45012" id="Path-2424-Copy-24" stroke="#000000" stroke-width="6" stroke-linecap="round" stroke-linejoin="round"></path>
        <path d="M966.579632,1200 L961,1215.45012" id="Path-2424-Copy-25" stroke="#000000" stroke-width="6" stroke-linecap="round" stroke-linejoin="round"></path>
        <path d="M1003.57963,1174 L998,1189.45012" id="Path-2424-Copy-26" stroke="#000000" stroke-width="6" stroke-linecap="round" stroke-linejoin="round"></path>
        <path d="M944.579632,1110 L939,1125.45012" id="Path-2424-Copy-27" stroke="#000000" stroke-width="6" stroke-linecap="round" stroke-linejoin="round"></path>
        <path d="M895.579632,1116 L890,1131.45012" id="Path-2424-Copy-28" stroke="#000000" stroke-width="6" stroke-linecap="round" stroke-linejoin="round"></path>
        <path d="M1033.57963,1166 L1028,1181.45012" id="Path-2424-Copy-29" stroke="#000000" stroke-width="6" stroke-linecap="round" stroke-linejoin="round"></path>
        <path d="M734.579632,1218 L729,1233.45012" id="Path-2424-Copy-9" stroke="#000000" stroke-width="6" stroke-linecap="round" stroke-linejoin="round"></path>
    </g>
</svg>